<?xml version="1.0" encoding="utf-8"?>
<!-- Generator: Adobe Illustrator 21.0.0, SVG Export Plug-In . SVG Version: 6.00 Build 0)  -->
<svg version="1.1" id="Layer_1" xmlns="http://www.w3.org/2000/svg" xmlns:xlink="http://www.w3.org/1999/xlink" x="0px" y="0px"
	 viewBox="0 0 154 36" style="enable-background:new 0 0 154 36;" xml:space="preserve">
<style type="text/css">
	.st0{fill-rule:evenodd;clip-rule:evenodd;fill:#306FB7;}
	.st1{fill-rule:evenodd;clip-rule:evenodd;fill:#FFFFFF;}
</style>
<path class="st0" d="M154,18l-0.3,0.4v0.3l0.3,0.2l-0.1,1.1l-0.2,0.2l0.1,1l0,0.5l-0.1,0.3l-0.2-0.1l-0.2,0l0,0.2l0.3,0.3l0,0.3
	l-0.2,0.2l-0.6,0.2l0.1,0.2l0.4,0.1l-0.2,0.4l-0.5,0.5l0.1,0.2l0.2,0v0.3l-0.2,0.6l0.1,0.3l-0.4,0.3l-0.8,2.5l-0.7,0.8l-0.3,0.7
	l-0.4,0.3l-0.8,1l-0.3,0.1l-0.4,0.5l0,0.3l-0.2,0l-0.3-0.4l-0.2,0.5l-0.4,0.1l0,0.3l-0.1,0.4l-1.3,1l-0.5,0l-0.3-0.1l0,0.2l0.1,0.3
	l-0.4,0.1l-0.2-0.1l0-0.2l-0.6,0.3l-0.4,0.4l-0.4,0.2h-0.3l-0.4,0.2l-0.9,0.1l-0.7,0.4l-2.1,0.1l-1.1-0.1l-0.5-0.2l-0.5,0.1
	l-1.4-0.3l-0.3,0l-0.6-0.4h-0.4l-0.1-0.2v-0.3l-0.5-0.2l-0.4,0.1l-1-0.5l-0.9-0.7l-0.1-0.2l-0.2,0.1h-0.3l-0.3-0.5l-1-0.9l-0.3-0.5
	l-0.4-0.1V31l-0.4-0.3l-0.1-0.3l-0.5-0.3l0-0.4l-0.3-0.4l-0.1-0.3l-0.4-0.2l0.1-0.6l-0.6-0.7l-0.2-0.4l0-0.6l-0.5-0.9l-0.1-0.6
	l0-0.3l-0.3-0.4l-0.2-1.2l-0.3-0.4l0.3-0.4l-0.3-0.4l-0.2-0.8l0.1-0.5l-0.3-1.3l0-0.6l0.1-0.2l-0.2-0.4l0.1-1.3l0.2-0.1h0.3
	l-0.5-0.6l0.2-0.4V15l0.2-0.1l-0.2-0.6l0.3-0.4l0.3-0.1v-0.6l0.2-0.4l-0.1-0.2l-0.2-0.1l0-0.6l0.4-1l0.3,0.1l-0.1-0.6l0.4,0.1
	L126,9.9V9.7l0.2-0.5l0.5-0.2l-0.1-0.2l0.1-0.1l-0.2-0.5l0.2-0.3L127,8l0.1,0.2l0.7-0.2l-0.2-0.5l0.1-0.2l-0.4-0.1l0.6-0.8l0.2-0.4
	l0.5-0.1l0.2-0.2V5l0.3,0l0.2,0.2l0.1-0.3l0-0.3l0.3-0.4l0.6-0.4l0-0.3l0.4-0.6h0.5l0.2-0.4l0.7-0.4l0.4-0.3l0.3,0l0.4,0.4l0.1,0.3
	l0.3-0.1l-0.2-0.6l-0.2-0.1l0.2-0.4l0.2-0.1l0.8-0.2l0.4-0.3l0.2,0.1l0.3-0.1l0.1-0.2l0.5,0l2-0.4h0.3l0.1,0.4l0.5-0.5l0.3,0.1
	l1.5,0l0.8,0.3h0.9l1.1,0.3l0.5,0.4l0.5,0.2l0.4,0l0.3,0.3h0.4l0.3,0.2l0.4,0.4h-0.2v0.2l0.2,0.1l0-0.3l0.1,0.1l0.5,0.1l0.4,0.3
	l0.8,0.6l0.5,0.2L149,4l-0.4,0.1v0.5l0.1-0.2l0.4,0.2l0.3-0.1l0.2,0.5l1,1.1l0.5,0.9l0,0.3l0.3,0.4l0.8,1.7l-0.1,0.3l-0.2,0.2
	l0.4,0.2l0.2,0.2l0,0.5l0.2,0.4l0.2,0.2l-0.4,0.4l0.5-0.1l0.2,0.4l0,0.5l-0.1,0.2l0.1,0.3l0.4,0.3l0,0.7l-0.1,0.2l0.3,0.7l0.2,1.6
	l-0.1,0.3l0,0.5l-0.1,0.3l0.3,0.1L154,18z M125,21.4l-0.1,0.2l0.2,0.1l0.2-0.3L125,21.4z M127.8,22.3l-0.2-0.2l-0.2-0.5h-0.2
	l0.1,0.2l0,0.5l0,0.3L127.8,22.3z M127.3,17.7l-0.3,0l0.1,0.3l0.3,0.2v-0.3L127.3,17.7z M127.4,17.2l-0.1-0.4H127l0.1,0.3
	L127.4,17.2z M127,23.1v0.2h0.2v-0.2H127z M127.2,21.1v-0.2H127v0.2H127.2z M127.4,24.4l-0.2-0.3l-0.1,0.4l0.3,0.1V24.4z
	 M126.6,26.6l0,0.2l0,0.3l0.5,0.1l0.2,0l0-0.3l-0.3-0.4l0.1-0.2L126.6,26.6z M126.9,25v0.1l0.1-0.1L126.9,25L126.9,25z M127,9.2
	l0,0.3l0.2,0.1l0.1-0.4L127,9.2z M127,11.2l0,0.2l0.2,0.1l0.1-0.3H127z M127.4,12.6l-0.2,0.2l-0.1,0.5l0.2,0.2l0.4-1L127.4,12.6z
	 M127.9,19.8l-0.2-0.1l-0.2-0.5l-0.3-0.1l-0.1,0.9l0.1,0.2l0.2,0v0.3l-0.1,0.2l0.1,0.2l0.4,0.1v-0.3l-0.2-0.4l0.1-0.2l0.1,0.3
	l0.1-0.2V19.8z M127.9,23.1l-0.2-0.2v0.3l0.2,0.2V23.1z M129.3,28.3l0.2,0.2v-0.3l0.4-0.5l-0.2,0.1l-0.2-0.2l-0.3,0.5L129.3,28.3z
	 M129.3,26.6l0.3-0.1l0.1,0.1l0.1-0.3l-0.4-0.5l-0.1,0.3l0,0.2L129.3,26.6z M129.7,25.4l-0.1-0.5l0.2-0.4l-0.2-0.1l-0.2,0.1
	l-0.3,0.5L129.7,25.4z M129,22.6l0.1,0.4l-0.1,0.2l0.3,0.5l0.3-0.2l0.1-0.2l-0.2-0.8v-0.3l-0.4-0.1v0.3L129,22.6z M128.9,24l0.3,0
	l-0.1-0.4l-0.2-0.1l-0.1,0.3L128.9,24z M129.3,9.2l-0.2,0.1l0.4,0.4l0.2-0.2L129.3,9.2z M129,11.8h0.1l0.2-0.2V11l-0.2-0.2l0,0.7
	L129,11.8z M129.4,14.5v0.3l0.2-0.1L129.4,14.5z M129.5,15.3l-0.2-0.1l-0.1,0.2l0.1,0.2l0.1,0.2l-0.1,0.3l0.3,0l0.1-0.2L129.5,15.3z
	 M129.3,16.3l0,0.3l0.1,0.5l0.2,0.2l0.1-0.2l-0.1-0.3l0.1-0.3L129.3,16.3z M129.7,19.7l-0.1-0.5l0.1-0.6l-0.1-0.7h-0.1l-0.1,0.3
	l-0.2,0.2l-0.1,0.2l0.1,0.2l0,0.5l0.2,0.2l-0.4,0.5l0.1,0.6l0.2,0.3L129,21l0,0.5l0.4,0l0.1,0.2l0.2,0.1l0.1-0.5l-0.1-0.2l0,0.3
	l-0.2,0.1v-0.7l0.2,0.1l-0.1-0.6l-0.1-0.2l0.4-0.3L129.7,19.7z M129.9,26.3l-0.1,0.2l0.1,0.2l0.2-0.2L129.9,26.3z M130,27.1v0.3
	l0.2-0.2L130,27.1z M130.6,3.3L130.6,3.3l0.1,0.1l0.1-0.2L130.6,3.3z M130.5,22.7l0.1,0.3h0.2L130.5,22.7z M131.9,30.8h0.3l-0.1-0.2
	l-0.2,0V30.8z M132.1,22.2l-0.1-0.3l-0.3-0.2l0.1,0.3L132.1,22.2z M130.9,29.9l0.1,0.3l0.1-0.3l0.5-0.2v-0.2l0.1-0.3l-0.7,0.3
	l-0.1,0.2V29.9z M131.1,28.6h0.4l0.1-0.2l0-0.6l-0.1-0.3l-0.3,0l-0.1,0.1l0.1,0.5L131.1,28.6z M131.2,26.1l0.1,0.1l0.1-0.3l0.3-0.1
	l0.1,0.3l-0.2,0.2l-0.4,0.2l-0.1,0.3l0,0.3l0.3,0.1l-0.1-0.6h0.4l0.4-0.2l0-0.2l-0.1-0.5l0.1-0.9l-0.3-0.3l0.2-0.2l0-0.4l-0.1-0.8
	l-0.3-0.1h-0.3l-0.1,0.5l-0.1,0.2l0.3,0.4l0.1,0.3h-0.3l-0.2,0.1l0,0.2l0.4,0.1l-0.1,0.6l-0.4,0.8H131.2z M131.7,21.5l-0.2-0.4
	l-0.2-0.1l-0.1,0.6l0.2,0.5l0.4,0.4l-0.1-0.5L131.7,21.5z M131.1,19.2l0.1,0.2l0.3-0.2l0.2,0.3v0.3l-0.2,0.5l-0.2,0.2l0.8,0.5
	l0.2-0.2l-0.3-0.5v-0.4l0.1-0.4l0-0.3l-0.3-0.1l-0.1-0.2l-0.2,0.2l-0.3,0l-0.2,0.1L131.1,19.2z M131.6,9.6l-0.2-0.2l-0.2,0.2
	l0.2,0.6l0.2,0.1l-0.1-0.3L131.6,9.6z M131.5,10.9l0,0.2l-0.2,0.1v0.1h0.3l0,0.3l0.3,0.1l-0.1-0.7L131.5,10.9z M131.3,12.4l0,0.3
	l0.1,0.2l0.3,0l0.2-0.4L131.3,12.4z M131.4,13.8l0.1-0.5l-0.3-0.4v1.6l0.5,0.3l-0.2,0.2l-0.2,0.6l0,0.3l0.1,0.1h0.3l0-0.2l-0.1-0.4
	l0.2-0.8L131.4,13.8z M131.3,17.3l-0.1,0.3l0.2,0.2l0.2-0.2l0.3,0.6l0.1-0.2l-0.1-0.2v-0.3L131.3,17.3z M131.1,9.1l0.1,0.1l0.4,0
	l0.1-0.4h-0.3l-0.3,0.1L131.1,9.1z M131.3,7.9l-0.1,0.3l0.2,0.1h0.3L131.3,7.9z M131.5,7.5l0-0.2l-0.2-0.2l0,0.2l0,0.3L131.5,7.5z
	 M131.6,5.1L131.4,5v0.4l-0.1,0.2l0,0.3l0.4-0.2L131.6,5.1z M131.6,5.9l-0.2,0.5l0,0.3l0.4-0.3l0.1-0.3L131.6,5.9z M131.9,9.9l0,0.2
	l0.1,0.2l0-0.2L131.9,9.9z M131.8,18.5l-0.1,0.2l0.4,0.1l0.2-0.1L131.8,18.5z M132.6,24.4L132.6,24.4L132.6,24.4L132.6,24.4z
	 M144.7,27.8l0.2,0v-0.2h-0.3L144.7,27.8z M145,26.8v-0.2h-0.2v0.2H145z M144.7,25.9l-0.3,0l-0.1,0.3h0.3L144.7,25.9z M144.5,28.2
	l-0.2,0.1l0.1,0.2l0.2-0.1L144.5,28.2z M144.1,32.1l0.3,0.1l0.1-0.3l0-0.3l-0.2-0.1l-0.1,0.2V32.1z M144.4,23.8v-0.2l-0.2-0.1
	l-0.3,0.3H144.4z M140.1,35.6l-0.3-0.1l-0.1,0.2L140.1,35.6z M138,31.9l0.2-0.1l-0.2-0.4l-0.2,0.4L138,31.9z M137.8,34.4l0-0.3
	l-0.1-0.2l0,0.2L137.8,34.4z M135.9,33.4l0.2-0.4l-0.3,0l-0.1,0.3L135.9,33.4z M136.1,27.6l0-0.2l-0.4-0.3l0-0.3h-0.2l-0.1,0.5
	l0,0.2l0.2,0.1l0.4-0.2L136.1,27.6z M135.9,28.2l0,0.3l0.1-0.2L135.9,28.2z M135.5,30.4l0.1,0.1l0.2-0.2l-0.4-0.3L135.5,30.4z
	 M135.4,29.6l0.1,0.2l0.2,0.1l0.2-0.9l-0.5-0.1l-0.2,0.2L135.4,29.6z M133.4,31.8l0.2,0.2l0.2,0.2l0.1-0.3l-0.2-0.4l-0.4-0.4l0,0.2
	L133.4,31.8z M133.8,30.3v-0.4h-0.3L133.8,30.3z M133.3,28.7l0.3,0.1h0.7l0.1-0.3l-0.4-0.6l0-0.3l-0.6,0.4l-0.1,0.3V28.7z M134,26.7
	v-0.2l-0.2-0.1v0.4L134,26.7z M133.1,26.9l0.3,0.3l0-0.6l0.2-0.1v-0.8l-0.4-0.7l0,0.3l-0.2,0.2l0.1,0.2L133.1,26.9z M133.2,24.6
	l0.3,0.1l0.2-0.2l0-0.6l-0.2-0.1l-0.1,0.2l-0.1,0.4L133.2,24.6z M133.6,23.4l-0.1-0.2l-0.2,0l0.1,0.2L133.6,23.4z M133.1,9.5
	l0.1,0.3l0.3,0.3l0-0.3l-0.1-0.2L133.1,9.5z M133.3,10.4l0.2,0.1v-0.3l-0.2-0.1L133.3,10.4z M133.5,3.6l-0.1,0.1l-0.1,0.2l0.2-0.1
	L133.5,3.6z M133.5,5l-0.1,0.1l0.2,0.1l0.1-0.2L133.5,5z M133.7,6.7l-0.4-0.2v0.3l0.2,0.2l0.3-0.1L133.7,6.7z M133.7,7.7l-0.2,0.2
	L133.3,8l0.1,0.2l0.2,0.1l0.2-0.5L133.7,7.7z M135.3,0.8L135.2,1l0,0.3l0.2,0.1l0.1-0.5L135.3,0.8z M135.4,3.3l0,0.3l0.3,0.2
	l0.1-0.5H135.4z M135.5,2.5v0.3l0.3-0.1l0.2-0.4L135.5,2.5z M136.3,4.3l-0.2,0l0-0.2l-0.5,0.2l0.3,0.6l0,0.3h-0.3L135.3,6v0.4
	l0.5,0.2l-0.1-0.3l0-0.8l0.2-0.4l0.4-0.1l-0.1-0.4L136.3,4.3z M135.6,7.3l0.2-0.2l-0.1-0.2l0,0.2L135.6,7.3z M135.9,6.3l0.1,0.2
	l0.2-0.2l0-0.3h-0.2L135.9,6.3z M136.2,9.5l-0.1,0.2l0.2,0l0.1-0.1L136.2,9.5z M136.9,3.6l-0.1-0.1v0.2l0.2,0.1L136.9,3.6z M138,2.4
	l0,0.4l0.1,0.2l0.4-0.2l0-0.3L138,2.4z M137.9,3.7l0.1,0.2l0.2-0.4L138,3.5L137.9,3.7z M138.5,6.2l-0.3-0.5l0.1-0.2l0-0.3l-0.1-0.2
	L138.1,5l0.4-0.7l-0.3,0l-0.2,0l0,0.3l-0.1,1.1l0.3,0.4l-0.2,0.4v0.3l0.3,0.4l0.2,0.1l0.1-0.3L138.5,6.2z M138.1,7.6h0.3l0.1-0.3
	l-0.1-0.2l-0.2,0.2L138.1,7.6z M139.9,4.4l0.2,0.1l0.3,0l-0.1-0.3L140,4.2L139.9,4.4z M140.4,3.2l-0.2,0l-0.1,0.2v0.3l0.2-0.2
	L140.4,3.2z M140.1,0.3l0,0.3l0.1,0.1l0-0.2L140.1,0.3z M140.3,1.3l-0.3,0l0.1,0.3h0.3L140.3,1.3z M140.2,2.5v0.4l0.2-0.1l0.1-0.2
	L140.2,2.5z M140.4,4.7h-0.3l0.1,0.3l0.1,0l0,0.3l-0.3,0.4l0.4,0.1l0.1-0.2L140.4,4.7z M140.7,5.8L140.6,6l0,0.2l0.1-0.1L140.7,5.8z
	 M142.4,2.6l-0.2-0.2l-0.1,0.3l0.2,0.2l0-0.1l0.1,0.1L142.4,2.6z M142,4.3v0.2h0.3l-0.1-0.2L142,4.3z M142.5,6.8l-0.2-0.1l0.2-0.1
	l-0.1-0.3l-0.2-0.2L142,6.4l0.2,0.3l0.1,0.5l0.2,0.1l0.1-0.3L142.5,6.8z M142.1,8.9l0.1,0.3l0.2,0.1V9l-0.1-0.2L142.1,8.9z
	 M142.5,7.7h-0.2l0,0.4l0.1,0.2l0.1,0l0.1-0.4L142.5,7.7z M144.1,9.1L144,9.3l0.3,0l0.1-0.2l-0.1-0.2L144.1,9.1z M144.5,8l-0.1-0.2
	l0,0.3l0,0.3l0.2-0.1L144.5,8z M144.5,10.2l0.2,0.1v-0.1H144.5z M144.3,1.4l0,0.2l0.2,0.1L144.3,1.4z M144.7,3.8L144.5,4l0.3,0.1
	l0.1-0.3L144.7,3.8z M144.4,5.2v0.2l0.2-0.1L144.4,5.2L144.4,5.2z M144.9,6.1h-0.2v0.2h0.2V6.1z M144.8,7l-0.4-0.1l0.1,0.2l0.2,0.1
	l0.2,0L144.8,7z M144.9,16.4l-0.2-1.1l-0.3-0.7l0.1-0.2l-0.2-0.5l0.4-0.2l0-0.2l-0.5-0.1l-0.2-0.5l-0.5-0.9l-0.1-0.6l-0.4-0.4
	l-0.5-0.7l-0.1-0.7l-0.2-0.1L142,9.6l0.1,0.3l0,0.1l-1.8-1.1l0.2-1.1l0.3-0.4l-0.3-0.1l-0.3-0.7l-0.1,0.5l0,1.1L140,8.7l-0.1,0.2
	l-0.2,0.1l-0.5-0.2l-2.6,0.9l-0.6,0.5l-0.1-0.2l-0.3,0.1l0.3,0.5l-0.6,0.8l-0.8,1.7l-0.5,2.1l-0.1,1.5l-0.3,0.1l-0.2,0.2l0.2,0.3
	l0.1,0.5l-0.1,0.2l-0.3,0l0.1,0.5l-0.2,0.4l0.1,0.2l0.1,1.1l0.2,0.2l0-0.3l0.2-0.1l0.2,1.3l-0.1,0.6l0.5,0.8l0.4,1.3l0.4,0.3
	l0.2,0.4V25l0.2,0.1l0.9,1.1l0.4,0.3l0.2,0l0.1,0.1v0.3l0.1,0.1l0.1-0.3l0.1,0l0.6,0.4l0.5-0.1l0.5,0.1l0.4,0.2l0.1-0.2l0.2,0
	l0.5,0.1l1.8-1.2l0.6-0.6l0.7-0.4l0-0.7l0.4-0.7l0.2-0.2l0.2-0.7l0.2-0.2l0.2-0.1h0.3l0.1-0.2l-0.6,0.1l0.3-1.3l-0.2-0.2l0.4-0.6
	l-0.2-3.3l0.5-0.1L144.9,16.4z M147,24.7v-0.5h-0.4l0,0.3l0.2,0.1L147,24.7z M146.7,23.4l-0.2-0.2l-0.1,0.2H146.7z M146.3,24l0,0.3
	l0.2,0.1l0-0.6l-0.2-0.1L146.3,24z M146.4,22.5l0.2,0.1l0.2-0.1v-0.7l-0.1-0.3l-0.1,0.2l-0.2,0V22.5z M146.6,30.8l0.1-0.1l0-0.3
	l-0.3,0.1l-0.1,0.3L146.6,30.8z M146.7,29.8l-0.2-0.4l-0.1,0.3L146.7,29.8z M146.3,29l0.3-0.1l0-0.4l-0.3-0.1l0,0.3L146.3,29z
	 M146.3,27.7l0,0.3l0.2-0.2l0.1-0.2l-0.1-0.7l0.1-0.2l-0.4-0.3L146.3,27.7z M146.3,26.1l0.2,0.1l0.2,0l-0.2-0.5l0.2-0.5l-0.3-0.1
	l-0.2,0.5L146.3,26.1z M146.1,18.9l0.4,0.4l0.2,0l-0.1-0.2l0.2-0.7l-0.2-0.2l-0.3,0.4L146.1,18.9z M146.2,17.1l0,0.3l0.2-0.1
	l0.1-0.5l-0.3,0.1V17.1z M146.3,4.7v0.2l0.2,0.1l0.1-0.4L146.3,4.7z M146.4,9.7l-0.1,0.2v0.3l0.3,0.1l0.2-0.5L146.4,9.7z
	 M146.5,10.6l-0.1,0.3l0.3,0l0-0.2L146.5,10.6z M146.6,15.3l-0.1-0.1l-0.1,0.2v0.2l0.3,0l0.1-0.2L146.6,15.3z M146.8,16.2l-0.3,0
	l0.1,0.2l0.3,0L146.8,16.2z M147,17.2l-0.3,0.4l-0.1,0.3l0.3,0l0.2-0.4L147,17.2z M149,27.7l0-0.3l-0.2-0.1l0,0.2l0,0.2H149z
	 M148.8,25.6l-0.2,0.1v0.6l0.4-0.1l0-0.3l-0.2-0.1L148.8,25.6z M148.7,24.3l0.1-0.3l-0.1-0.3l-0.2-0.2l0,0.6L148.7,24.3z
	 M148.6,23.4l0.2-0.7l0.2-0.2l-0.4-0.1l-0.4,0.6l-0.1,0.2l0.3,0L148.6,23.4z M148.7,25.4l0,0.1l0.3-0.1H148.7z M148.4,28.6h0.2v-0.2
	l-0.3-0.1L148.4,28.6z M148.3,26.8l0.2,0.1v-0.3h-0.3L148.3,26.8z M148.1,25.1l0.3-0.1l0-0.3l-0.2-0.2l-0.1,0.2V25.1z M148.1,21.8
	l0.2,0.1l0.2,0l0-0.2l0.3-0.7l-0.2-0.1l-0.3,0.7L148.1,21.8z M148.5,18.9v-0.2l-0.2-0.1v0.2L148.5,18.9z M148.3,17v1.1h0.6l-0.2-0.1
	l-0.1-0.2l0.1-0.8l-0.1-0.1L148.3,17z M148.7,16l-0.1,0.1l0.1,0.1L148.7,16z M148.6,15.4l0.1,0.3l0.2-0.2L148.6,15.4z M149,12.7
	l0,0.3l0.1,0.2l0-0.3L149,12.7z M149,15.1l-0.1,0.2l0.2,0.3l0.1-0.3L149,15.1z M149.2,19.9l-0.3-0.2l-0.1,0.6l0.2,0.1l0.2-0.2V19.9z
	 M150.7,25.5l0.1-0.2l0.2-0.1l0.1-0.2l-0.5,0.1l-0.2,0.2L150.7,25.5z M150.5,21.8l-0.1,0.2l0.2,0.2l0.3,0l-0.1-0.3v-0.5l-0.1-0.2
	h-0.4l0,0.1v0.2l0.4,0.3L150.5,21.8z M150.8,22.7l-0.2-0.2l-0.1,0.6l0,0.3h0.5v-0.5L150.8,22.7z M150.3,26.7l0.1-0.2l-0.1-0.1
	l-0.1,0.2L150.3,26.7z M150.5,18.9l-0.2-0.1l0,0.3l0.2,0L150.5,18.9z M150.8,18.2v-0.4h-0.3l0.1,0.3L150.8,18.2z M150.8,16v-0.4
	l-0.3,0l-0.1,0.1L150.8,16z M150.7,12.7v0.2l0.1,0L150.7,12.7z M150.5,14.2l0.1,0.2l0.3,0l0.2-0.1L150.5,14.2z M150.7,19.6l-0.1-0.2
	h-0.3l-0.1,1.3v0.2l0.2,0l0.4,0.1l0-0.3l-0.3-0.2l-0.1-0.2l0.5-0.1l0.2-0.4L150.7,19.6z M151.3,21.3l-0.3,0.1v0.3l0.3-0.1V21.3z
	 M133.4,19.5l0.2,0.2l-0.1,0L133.4,19.5z M121.1,13.7L121,14l-0.2,0.2l0.2,1.1l-0.2,0.5l0.2,0.8l-0.1,1.1l-0.2,0.2l0.2,0.5l-0.4,0.2
	l0.1,0.2h0.3l-0.1,0.2l-0.3,0l-0.1,0.1l0.6,0.2l-0.1,0.2l-0.1,1l0.2,1l-0.3,0.2l-0.1,0.3l0.4,0.1l-0.3,1.1V24l0.3,0.4l-0.3,1.1
	l0.3,0.2l-0.1,0.2l-0.2,0.1l-0.1,0.2h0.4l-0.1,0.3v0.7l-0.1,0.3l0.1,0.2l0.2,1.1l-0.3,0.4l0.1,0.2l-0.1,0.7l0.1,0.5l0.2,0.2
	l-0.1,0.4v1.8l-0.2,0v0.4l0.2,0l0-0.2l0.1,0.5l-0.3,1.1l-0.1,0.2l-0.3,0l-0.6,0.1l-0.2-0.4l-0.4,0.1l0.3,0.1l-0.4,0.4l-0.3,0
	l-0.4-0.3l-0.2,0.1h-0.4l-0.5,0.3l-0.6-0.3l-0.3,0.2h-0.4l-0.3-0.1l-0.1-0.2l-0.2,0.1l0-0.1l-0.1,0.3l-0.2-0.1l-0.1-0.3l-0.2-0.1
	l-0.8,0.4l-0.4-0.3l-0.1-0.3H113l-0.2,0.1l-0.2,0.4l-0.2-0.1l-0.3-0.4l-0.2-0.8l0.1-0.5l0.1-0.2l-0.3-0.4l0.2-0.2l0.3-0.1l-0.4-0.4
	l0-0.3l0.1-1.1l-0.2-0.5l0.4-0.2l-0.1-0.2l0-0.5l0.1-0.3l-0.2-0.5l-0.1-1.1l0.3-0.1l0.2,0.2l-0.1-0.5l-0.4-0.3l0.7-0.8l-0.2-0.1
	l-0.4,0l0.1-0.2l-0.1-0.6l0-0.6l0.2-0.2l-0.1-0.5l0.4-0.4l0.4-0.7l-0.3,0l-0.3,0.4l-0.3-0.1l0.2-0.7l-0.1-0.4l0.4-0.9l0-0.4
	l-0.4-0.4l-0.1-0.3l0.2-1l0.1-0.2l-0.1-0.2l-0.2-0.1l0.1-0.4l-0.1-0.4l0-0.6l0.2-0.2l0.3,0l-0.1-0.2l-0.5-0.1l0.2-1l-0.1-0.5
	l0.2-2.1l-0.2-0.8l-0.2,0l-0.6-0.4h-0.3l-0.5,0.3l-0.3-0.1l-1,0.4l-0.8,0.1l-0.4-0.3h-0.3l-0.1-0.3l-0.1-1.1l-0.2-0.8l0.2-0.4l0-1.4
	l-0.1-0.3l0.2-0.1l-0.1-0.2l0-1.1l-0.1-0.1l0.1-0.5l0-0.8l0.3-0.4l-0.2-0.4V4.1l0.3-0.7l0.3,0l0.1,0.1l0-0.3l0.2-0.2l0.4-0.2l0.3,0
	l0.2,0.2l0.5-0.6h0.4l0.2,0.1l0.3-0.4l0.4-0.3l0.5-0.1l0.6,0l0.6-0.4h0.3l0.2,0.1l0.3-0.4l0.2,0.1l0.6-0.4l0.4,0.1l0.2-0.2l0.8,0.1
	l0.3,0l0.2-0.2l0.2,0.1l0.5,0.1l1.5-0.2l0.2,0.1h1l0.3,0l-0.2,0.4l0.6,0.1l0.3,0l-0.1-0.2l-0.2-0.1l-0.1-0.2l0.3,0.1l0.3,0.5
	l-0.4,0.5l0.2,0.1h0.4l0.2,0.5l-0.1,0.6l-0.1,0.2l0.2,1.1l-0.2,2.1l0.2,0.3L120.8,7l0.2,1l-0.4,0.4l0.1,0.1l0.3,0l-0.1,2.1l0.1,2.2
	L121.1,13.7z M108.3,6.5l0,0.3l0.2,0l0.1-0.4H108.3z M111.1,6.4l-0.1-0.1l-0.2,0.2v0.3l0.2-0.1L111.1,6.4z M110.7,10.8l0.2-0.1
	l-0.2-0.1V10.8z M111.1,4.4l-0.2-0.1l-0.2,0.1v0.2l0.4,0V4.4z M110.9,5.1l-0.2,0.2v0.2l0.3,0.1l0.2-0.5L110.9,5.1z M111.6,2.5
	l0.2,0.2l0.1-0.2L111.6,2.5z M112.2,15.7V16l0.2-0.1L112.2,15.7z M113.5,32.1l-0.1-0.2l-0.2-0.1l-0.2-0.4l-0.1,0.3l0,0.3L113.5,32.1
	z M113.1,29l0.1-0.1l0-0.2l-0.2-0.1l-0.2,0.3L113.1,29z M112.9,29.7l0.2,0.2l0.1-0.3l-0.2-0.1L112.9,29.7z M113,18.8v-0.2h-0.2v0.2
	H113z M112.9,9.1l0,0.3l0.3-0.1l0.2-0.5l-0.6-0.4L112.9,9.1z M113.2,25.5l-0.2,0.1l0.1,0.5l0.2-0.1l0.1-0.6L113.2,25.5z M112.9,33.9
	l0.2-0.1l0.1-0.2h-0.3V33.9z M112.4,31.8l0.2,0v-0.7l0.5-0.1v-0.6l-0.2,0.2l-0.2-0.2l0,0.3l-0.2,0.1l-0.2,0.1L112.4,31.8z
	 M112.4,28.1l-0.1-0.1l0,0.3l0.2,0.1L112.4,28.1z M112.5,23.8l-0.1,0.3l-0.1,0.2l0.4,0.2l0.1-0.5L112.5,23.8z M112.7,22.1h-0.1
	l-0.1,0.1L112.7,22.1z M112.8,4.3l-0.1-0.2h-0.1l-0.1,1.3l0.1,0.3l0.3-0.1l-0.2-0.1L112.8,4.3z M112.8,6.9l0,0.3l0.3,0.1l0.2-0.1
	V6.9L113,6.7L112.8,6.9z M113.2,5.1l-0.2,0l0,0.4l0,0.3l0.5-0.1L113.2,5.1z M113.6,29.2l0,0.2l0.2,0.1l0.1-0.5L113.6,29.2z
	 M113.9,29.8l-0.2-0.1v0.2l-0.1,0.4l0.4-0.2L113.9,29.8z M114.5,34.1l0.2-0.1l0-0.7l0.6-0.1l0-0.5l-0.1-0.2l0.2,0l0-0.6l-0.1-0.2
	l-0.7,0.7l-0.1,0.3l0.5,0.2l0,0.3h-0.4l-0.2,0.1l0.2,0.6L114.5,34.1z M114.7,8h-0.2l-0.1,0.2l0.1,0.1l0.2,0V8z M114.4,17.2v0.6
	l0.2,0.2l0.1-0.8H114.4z M114.7,19.6l-0.3-0.2l0,0.3l0.2,0.2l0.3,0.1l0.2-0.1l0.1-0.3L114.7,19.6z M114.8,16.3h0.2l0.1-0.2h-0.3
	V16.3z M115.2,1.8L115,1.8l-0.1,0.1l0.1,0.2h0.3L115.2,1.8z M115.1,9.1l0.1,0.2l0.2-0.2H115.1z M115.4,20.8l-0.3-0.3v-0.4l-0.2,0.1
	l-0.2-0.1l-0.2,0.3l0.1,0.3l0.3,0l0.5,0.3L115.4,20.8z M115.5,25.8l-0.2-0.5v-1.1l-0.3-0.7l0.3-0.6l-0.1-0.2l0.1-0.7v-0.6l-0.6,0.1
	l-0.1-0.3l-0.2-0.2l-0.1,0.4l0.1,0.2l0.2-0.2l0,0.2l0.2,0.1v0.3l-0.2,0.5l0,0.2h0.3l0,0.3l-0.3,0.4l0,0.3l0.2,0.1l-0.2,0.3l0,0.2
	l-0.3,0.8v0.3l0.2,0.3l-0.1,0.3l0.2,0.7l-0.1,0.2l0,0.6l0.1,0.3l0.2,0.2l-0.2,0.2l0.2,0.1l0.2-0.4l0.4,0.1V28l-0.3,0.5v0.4h-0.3
	l0,0.2l0.2,0.1l0.1,0.2l-0.1,0.2l0.2,1l-0.5,0l-0.1,0.4h0.4l0.5-0.1l0.1-0.3l-0.2-0.2l-0.1-1l-0.1-0.2l0.2-0.5l0-0.5l-0.3-1.1
	l0.3-0.1l0.1-0.2l0.1-0.8L115.5,25.8z M117.7,30.8l0-0.3l-0.3-0.1l-0.2,0.2l0.1,0.2l-0.2,0.1l0.1,0.2l0.2,0.1l0.3,0l-0.1-0.3
	l-0.1,0.1l-0.1-0.3H117.7z M116.8,33.1h0.6v-1.3l0.2,0.1v-0.3l-0.2-0.1l-0.4,0.4l-0.3,0.2l0,0.3L116.8,33.1z M116.9,30.3l0.4-0.7
	l0.3,0.3h0.3v-0.6l-0.2-0.4l-0.1-0.5h-0.5l-0.2-0.1v0.6l0.3-0.1l0.2,0.1l0.2,0.4l-0.2,0l0,0.2h-0.4l-0.2,0.6L116.9,30.3z
	 M116.7,29.1l0.1,0.2l0.2,0.2l0-0.4L116.7,29.1z M116.2,28.7h-0.2l-0.1,0.1v0.1l0.3,0.1V28.7L116.2,28.7z M116.5,23.7l0.2-0.1l0-0.3
	l-0.2,0.1L116.5,23.7z M116.6,21.4l0.1,0.2l0.3,0.1l-0.1-0.2L116.6,21.4z M117,20.1l0.1,0.2l0.3,0.1v-0.7l-0.4-0.3V20.1z
	 M116.7,15.5l0.3,0l0.2-0.2l-0.5-0.3V15.5z M117,1.9L117,1.9h0.2H117z M117.1,10.2l0.2,0.2l0.1-0.2H117.1z M117,17.2l-0.2,0.4l0,0.3
	l0.5-0.2l0.1-0.3L117,17.2z M117.8,21l-0.2-0.1l0-0.2l-0.4-0.1l-0.1,0.2l0,0.3l0.8,0.2L117.8,21z M117,21.6v0.3l0.2,0.1l0-0.2
	L117,21.6z M117.8,24.8l-0.4-0.7l0.1-0.2l0-0.3l-0.2-0.2l0.1-0.5l0.1,0.2v-0.6l0.2-0.5l-0.3-0.1l-0.3,0l-0.1,0.3l-0.1,0.1h-0.3
	l0.3,0.3l-0.1,0.5l0.2,0.3l0,0.2h-0.2l-0.1,0.3l0.1,0.3l0.4,0.3l-0.4,0.3l-0.1-0.2l-0.1,0.2v-0.2l-0.2-0.1v1.2l0.2,0.1l0.1,0.6
	l0.1,0.1l0.3-0.2l-0.1-0.1l0.1-0.4l0.2-0.2l0.1,1.4l-0.3,0.2l-0.1-0.2l-0.3-0.1V28l0.2-0.1l0.1,0.3l0.4-0.1l0-0.2l-0.1-0.4l0.2-0.4
	l0.1-0.5l-0.2-0.2l-0.1,0.1v-0.3l0.3-0.1l0.1-0.3l-0.3-0.1l-0.1-0.6l0.2-0.2l0.1,0.2l0.3,0L117.8,24.8z M119,29.8l0,0.3h0.5
	l-0.1-0.3L119,29.8z M119.2,29.3v-0.2l-0.2-0.1l-0.1,0.2l0.1,0.2H119.2z M119.1,33.3l0.2,0l0-0.4h-0.3l-0.1,0.3L119.1,33.3z
	 M118.8,31.4l0.2-0.1l0.2-0.2l0.1-0.5l-0.1-0.2l-0.2,0.4l-0.2,0.1V31.4z M118.6,25.8l0.4,0.7l0.2,0.1l0.2,0l-0.3-0.4l0.1-0.3l0-0.3
	l-0.2-0.2l-0.2,0.2L118.6,25.8z M119,23.1l0,0.4l0.1,0.2l0.1-0.2l0-0.4L119,23.1z M119.1,21.3l0.2-0.2l-0.2-0.1V21.3z M119,1.1
	l-0.1,0.2v0.3l0.1,0.1l0.2-0.4L119,1.1z M119.1,17.1l0,0.3l0.2,0.1l0-0.3L119.1,17.1z M119,18.9l0.2,0.1l-0.2-0.3L119,18.9z
	 M119.1,19.4l-0.3,0.1l0.2,0.2h0.2l0.2-0.2L119.1,19.4z M119.2,20.4l0.1,0.1l0.1-0.1H119.2z M119.4,22.4l-0.4,0l0,0.2l0.1,0.1h0.3
	L119.4,22.4z M119.2,27.7l0,0.5l0.1,0.2l0.3,0.1L119.2,27.7z M116.6,25.2h0.2l0,0.2L116.6,25.2z M115.2,26.2l0.1,0.1v0.3l-0.3-0.3
	L115.2,26.2z"/>
<path class="st1" d="M82,12.6l0.4,0.3l-0.1,0.3l0,0.8H82l-0.2-0.1l0-0.4l0.1-0.5L82,12.6z M81.8,10.3H82L82,10.8l-0.2-0.2V10.3z
	 M81.8,4.7l0-0.2L82,4.8L81.8,4.7z M91.1,13.6l-0.5,0.2l0.1,0.3l0.3,0.1l-0.2,0.5l0,1l-0.1,0.8l-0.2,0l-0.2,0.4h0.2l0.3,0.2
	l-0.1,0.2l-0.4,0.2l0.3,0.1l0.2-0.2l0.2,0.2V18l-0.4,0.3l0.4,1.1l-0.3,0.2l0.2,0.5l0.1,1.2l-0.1,0.2l-0.1,0.6l0,1.1h-0.2l0.2,0.4
	l0.2,1l-0.1,2.2l0.1,1.5l0,0.3l-0.2,0.2l0.3,0.5L91,29.5l0.1,0.5l0,0.2l-0.2,0.2l0.2,0.1l0,0.3l-0.4,0.2l0.4,0.3l-0.2,0.8l0.2,0.4
	l-0.1,0.5l0,1L90.7,34l0-0.3l-0.3,0.2l0.1,0.1l0.2-0.4l-0.1,0.2l0.1,0.5l-0.5,0.2l0.1,0.4l-0.7,0l-0.4,0.2l-0.7-0.4L88,35.1h-0.3
	l-0.5,0.2L87.2,35l-0.5-0.3l-0.1,0.2v0.3l-0.4-0.3l-0.4,0.3l-1.9-0.4L83.6,35l-0.1,0.2h-0.7l-0.4-0.8l-0.2-0.2L82,34.1l0.1-0.2
	l-0.4-1.1l0.2,0l0.2,0.1l0.2-0.2l-0.2-0.2h-0.3l0-1.1L82,31l-0.3-0.3l0.1-0.2v-1.4l0.1-0.3l-0.3-0.7v-0.3l0.2-0.2l-0.1-2.1l0-2.1
	l0.3,0.1l0.2-0.1l-0.2-0.8v-0.3l-0.2,0l0.1-0.8l0.5-0.2l-0.1-0.2l-0.5,0.1l0-0.3l0.2-0.5l-0.2-0.4l0-0.5l0.2-0.4l-0.2-0.4l-0.1-0.7
	l0.4-0.4l-0.3-1.1l0.3-0.4l0.7,0.1L82.7,16l-0.5,0L82,15.8l0.5-0.7l-0.6-0.4l0-0.3l0.3,0l0.3,0.1l0.2,0l0.2-1.7l-0.2,0.2l-0.4-0.4
	l0.1-0.4l0.3-0.1l-0.2-0.1l-0.3,0L82,11.6v-0.3h0.6l0-0.4l-0.2-0.5l0-0.4l-0.3,0.1l-0.2-0.1L82,9.9l0.1-0.3l0.4-0.1L82.4,9l0.2-0.2
	l-0.2-0.4l-0.2,0.1L82,9.1L81.8,9L82,8.3L81.9,8l0-0.7L82,7.1l0.2,0.4v0.2l-0.1,0.2l0.2,0.4L82.6,8l0.1-0.3l-0.2-0.8l0.1-0.5
	l-0.1-0.2l-0.1-0.1L82,6.5l0-0.3L82,5.7l-0.2-0.2l0.4-0.8L81.8,4L82,3.8l0.3-0.1l0-0.3l-0.4-0.6V2.6H82l0.5,0.3L82.8,3V2.8l-0.4-0.3
	H82L81.9,2l0.2-0.1L82.4,2l0-0.2l-0.1-0.3l0.3-0.1l0-0.7l0.2,0L83,1l0.5-0.3h0.3L84,0.9l0.5-0.2l0.9,0.1l0.2-0.2L86,0.7l1.2,0
	l0.4,0.4l0.2-0.1l-0.2-0.4l0.2,0.1l1.6-0.1l0.5,0l0.4,0.2l-0.1,0.5l0.6,0.1l0.2,0.4l0,0.5l-0.1,0.6v0.8l0.2,0.4L91,4.7l0,1.1
	l-0.3,0.4l0,0.2l0.1,0.2l-0.1,0.2l-0.2,0l0.6,0.4L91,7.6l-0.2,0.2L90.9,8v1.3l0.2,0.2L90.9,10l0,0.8L90.7,11l0.1,0.5l-0.4,0l0.2,0.6
	h0.2l0,0.3l-0.2,0.1L91,13L91.1,13.6z M90.6,30.8l0.1-0.3l-0.2,0l-0.1,0.2L90.6,30.8z M82.4,20.3l0.1,0.2l0.1-0.1L82.4,20.3z
	 M82.4,5.7l0,0.3l0.2,0V5.7H82.4z M82.5,5.1v0.3l0.2-0.1l0.1-0.1L82.5,5.1z M83.7,1.1h-0.2v0.2h0.2V1.1z M85.1,19l-0.6-0.3l0.3-0.6
	l-0.3,0l-0.3,0l0,0.3l0.1,0.2l0.2,0.1v0.4l-0.4,0.4l0.6,0.4l0.2-0.7L85.1,19z M84.7,20.8l-0.3-0.1l0.1,0.4l0.3,0L84.7,20.8z
	 M84.6,21.9l-0.1-0.2l-0.1,0.4L84.6,21.9z M84.1,28.4l0-0.3L84,28.4H84.1z M84.2,20.7l0.2-0.1l-0.2-0.1L84,20.6L84.2,20.7z M84,17.7
	l0.3,0l0.3,0.1l0.2-0.1l-0.2,0L84.3,17L84,17.2V17.7z M83.9,16.1L84,16v0.3l0.3,0.4l0.3,0.1l0-0.2l-0.4-0.2l0.1-0.5l0.2-0.4v-0.3
	l-0.3,0l-0.1-0.2l-0.2,1L83.9,16.1z M84.7,13.8l0.1-0.3v-0.6l-0.3,0L84.2,13l0.2,0.1l0,0.4l-0.2,0.1l-0.2,0l0,0.6l0.3,0.6l0.5-0.4
	l-0.4-0.4L84.7,13.8z M84.3,12.1L84.2,12l0,0.2l0.1,0.1L84.3,12.1z M84.4,15.8l-0.1,0.4l0.2-0.1L84.4,15.8z M83.9,13.4H84v-0.3h-0.1
	V13.4z M84.4,4.4H84l-0.1,0.3l0.8,0.2L84.4,4.4z M83.9,5.1L84,5.3l0.4,0l0.1-0.1l-0.3-0.2L83.9,5.1z M84.5,4h0.2V3.9h-0.2V4z
	 M84.7,3.3h-0.2v0.2h0.2V3.3z M85,8.3l-0.4-0.7V7.3L84.7,7h-0.3l-0.2-0.1l-0.1,0.3l0.1,0.5L84,7.9l0.3,0.4l0.1-0.1l0.2,0.1L85,8.6
	V8.3z M85,10.5l-0.4-0.3V9.8l0.4-0.8l-0.6-0.4l-0.3,0l-0.1,0.3l0,0.2l0.2,0.1l0.2,0.2l-0.1,0.2l-0.1,0.6l0,0.2l0.1,0l0.1,0.2
	l-0.4,0.4l0.2,0.6L84,11.7l0.2-0.1l0.5-0.5l0.2,0.1l0-0.2l-0.1-0.2L85,10.5z M84.8,11.8l-0.1,0.3H85L84.8,11.8z M84.8,15.4l-0.1,0.3
	l0.2,0.2h0.2L84.8,15.4z M86.8,28.2L86.7,28l-0.1,0.1v0.2L86.8,28.2z M86.6,31.6l-0.1-0.2l0,0.2H86.6z M86.4,26.5l0.3-0.1l0,0.4
	l0.2,0.2l0.2-0.4L87,26.2l-0.8-0.1l-0.2,0.2L86.4,26.5z M86.4,24.4l0.3,0.1l0-0.5l-0.1-0.2l-0.2-0.1v0.5L86.4,24.4z M86.7,22v-0.3
	l-0.1-0.1l0,0.2L86.7,22z M86.6,21.1l0.2-0.2h-0.3l-0.1,0.2l-0.1,0.1L86.6,21.1z M86.8,25.4l-0.2,0l0.2-0.4l-0.2-0.1l-0.2,0.5
	l0.1,0.3h0.4L86.8,25.4z M86.4,23.4l0.1-0.3l-0.3,0.1l-0.1,0.2L86.4,23.4z M85.9,17.4l0.5,0.2l-0.1,0.1l-0.2,0l0.1,0.5L86,18.5
	l0.2,0.2l0.3,1.1l0.2,0.4l0.2,0.1l0.1-0.4l-0.3-0.3l-0.1-0.3l0.3,0L87,19l-0.2-0.4l0-0.3l0.4-0.4l0.1-0.4l-0.3-1l0.2-0.2l0-0.3h-0.3
	l-0.1-0.4l0-0.5l0.4-0.8l0-0.3l0.1-0.4v-0.5L87,12.3l-0.4-0.2l-0.1,0.3l-0.2,0.1l-0.3,0l0.2,0.2l0,0.3l0.2,0.4l-0.1,0.3l0.3,0.2
	l0.5-0.2v0.3h-0.4l-0.1,0.2l-0.2,1L86,15.3l0.4,0.9l-0.3,0.1L86,16.1l-0.1,0.2l0.1,0.8L85.9,17.4z M87,11.8v-0.5l-0.1-0.2h-0.3
	l0,0.3l-0.2,0.1l-0.1,0.3l0.4,0.1L87,11.8z M86,6.9v0.3l0.1,0.2l0.2,0.1l0.2-0.1l0-0.3h-0.3L86,6.9z M86.7,2.6l-0.2,0.3l0,0.3
	l0.3-0.1l0-0.3L86.7,2.6z M86.8,3.5L86.6,4l0.1,0.2l0.1-0.5L86.8,3.5z M86.7,4.7l-0.3,0.4l0,0.2l0.1,0.1l0.2-0.2L87,4.7L86.7,4.7z
	 M86.7,6.4L86.5,6l-0.2,0.1l0.3,0.4v0.3l0.3-0.1l0-0.3H86.7z M87,9.8l-0.4-1.1L87,8.8l0.1-0.3L87,8.3l-0.1,0.2l-0.8-0.1l-0.2,0.2
	l0.4,0.1L86.6,9l-0.2,0.4V10l0.3-0.1l0.2,0.1l-0.1,0.2l-0.2,0.1l-0.4-0.5v0.9L86,10.9l-0.2,0.3l0.2,0.1l0,0.3l0.2,0.1l0-0.3
	l-0.1-0.3l0.2-0.2l0.2-0.4l0.1,0.2l0.3,0.1h0.3l0.2-0.2L87,9.8z M87.3,15.5l-0.1-0.2l0,0.5l0.1,0.1l0.1-0.2L87.3,15.5z M88.9,22
	l-0.1-0.5l-0.1,0.2l-0.2,0.1L88.3,22l0.4,0.4L88.9,22z M88.7,26l0,0.3l0.2-0.1l0.1-0.2l-0.2,0L88.7,26z M88.5,20.4l0.2-0.1l0.1-0.3
	l-0.2-0.2l-0.1,0.2V20.4z M88.8,19.5l0.1,0.3l0.2-0.5l0-0.3h-0.3V19.5z M88.9,29.8L88.8,30h0.3L88.9,29.8z M88.8,31l0.1-0.2l-0.3,0
	l0,0.3L88.8,31z M88.1,24.9l0.2,0.2l0-0.3l0.3-0.4l0-0.3l-0.2,0.2l-0.2,0.1V24.9z M87.8,8.8v0.4l0.1,0.3h0.3L88,8.7l-0.2-0.2
	L87.8,8.8z M88.1,10.3l0.5-0.3l0.2-0.5l-0.3,0l-0.4,0.4l-0.3,0v0.4L88.1,10.3z M87.9,10.9v0.3l0.2,0.1h0.3l-0.2-0.5L88,10.7
	L87.9,10.9z M88.9,9.2l-0.3-0.8l-0.2-0.1l0.1,0.5l0.1,0.2L88.9,9.2z M88.2,8.4V8.1H88v0.3H88.2z M88.1,4.8L88.2,5l0.1-0.2L88.1,4.8z
	 M88.5,6.2l0.1,0.5l-0.2,0.2l-0.3-0.1l-0.2,0.1l0.3,0.5l-0.1,0.3h0.3l0.2,0.1l-0.2,0.6l0.3,0l0.2-0.4L88.6,7L89,6.8l0.1-0.2
	l-0.1-0.3l-0.2-0.1H88.5z M88.9,4.1l-0.1,0.3l0.1,0.2l0.2-0.2l0.1-0.3L88.9,4.1z M89.1,11.9L89,12.1v-0.5l-0.1-0.2l-0.5,0.4l-0.2,0
	l-0.3-0.1l0.3,0.7l-0.2,0.3h-0.3l0.1,0.3l0.3,0.4L88,13.7l-0.1,0.3l0.6,1.9l0.1,0.2l-0.5,0.3v0.3l0.1,0.2l-0.3,0l0.7,1.5l-0.4,0.3
	l-0.1,0.2l0.1,0.3l0.1-0.3l0.5-0.2v-0.3l-0.2-0.6l0.2-0.2l0.4-0.1l0-0.5L89,16.8l-0.3,0.6l-0.4-0.4l0.4-0.3l0.2-0.5v-0.3l-0.2-0.4
	l0.4-0.4l-0.1,0l0-0.2l-0.4-0.2l0.3-0.5l0-0.4l-0.4-0.3l0-0.3l0.2-0.2l0.1,0.1l0.2-0.2l0.1-0.4l0-0.4l0.2,0l0.1-0.1L89.1,11.9z
	 M90.1,13.1l0.3,0.1l0-0.3l-0.1-0.3l-0.1,0.2L90.1,13.1z M90.6,6.5l-0.1-0.3h-0.2l0.1,0.2L90.6,6.5z M90.7,9.2L90.6,9l-0.1,0.3H90.7
	z M90.5,8.5V8.3l-0.2-0.1l-0.1,0.3H90.5z M90.2,12.3v0.3l0.3-0.3H90.2z M88.5,12.3l0-0.2l0.1,0.2l0,0.3h-0.2L88.5,12.3z M86,16.9
	v-0.2l0.2,0.1L86,16.9z M78.5,15.8l-0.2,0.4l0.1,1v1.2l-0.2,1l0,1.1L77.9,22v0.5L77.8,23l-0.2,0.2l0,0.3L77.5,24l-0.4,0.6H77l0,0.5
	l-0.2,0.5l-0.6,0.9l-0.8,0.7l-0.6,0.4l0.1,0.1l0.3,0l-0.4,1l-0.7,0.7L74,29.2l-0.3,0l0.2,0.3l-0.1,0.3l-0.4,0.4l-0.3,0.1l-0.6,0.8
	L72,31.6l-0.3,0l-0.3,0.5l-0.8,0.6l-0.4,0.4h-0.3l-0.5-0.4l0,0.2l0.2,0.1l0,0.2l-0.3,0l-0.6,0.5L68.3,34L68,33.9l-0.4,0.6L67,34.6
	l-0.4,0.3l-0.4,0l-0.5,0.1l-1.3,0.6h-0.6l-1,0.2l-0.6,0l-0.4,0.2L59.6,36L59,35.7l-0.5,0.2l-0.6,0l-0.4-0.3l-0.4,0.1l-1.6-0.4
	L54.7,35l-0.5,0l-1-0.4h-0.3l-0.1-0.3l-0.4-0.3L51,33.7l-0.2-0.1l-0.3-0.5l-0.4-0.3l-0.6,0l-0.1-0.1l0-0.3H49l-0.9-0.5l0.1-0.4
	L48,31.3l-0.3-0.1h-0.4l-0.6-0.7l-0.4-0.3L46,29.4l-0.5-0.2l-2.2-3.6l-0.1-0.2v-0.7l-0.4-0.1l0.1-0.6l-0.4-0.3l-0.1-1.6l-0.1-0.2
	l-0.4-0.3l0-0.3L42,21l0.1-0.1L42,20.6l-0.4-0.5l-0.1-1.9h0.5l-0.5-0.6l0.1-0.2h0.3l0.2-0.1l-0.2-0.2l-0.1-0.4l0-1.5l0.2-0.2
	l0.3-0.1l0.2,0.1v-0.7l0.2-0.2l-0.5-0.1l0-0.3l0.6-0.4l0-0.3h-0.3l0.2-1.1l0.4-0.5l0.1-0.3l0.5,0.1l0.2-0.1l-0.4-0.4l0.1-0.2l0-0.3
	l0.5-0.1l0.2-0.2l0.2-0.5l-0.1-0.4l0.2-0.1l0.2-0.6L45,8l0.1,0V7.5L46.1,7h0.3l0-0.7l0.3-0.5h0.6l0-0.2l-0.1-0.2l0-0.3l0.2-0.1
	l0.3,0l0.1-0.3L48,4.7l0.7-0.5l0.3-0.1l0.7-0.8l0.8-0.7l0.4,0.5l0.2-0.1V2.5l0.3-0.1l0.8-0.7l0.6-0.1l0.4-0.3L55,0.7l0.4,0.2h0.3
	l0.9-0.4L57,0.3l0.5,0.1l0.6-0.3l0.3,0.1L59.5,0l2.1,0l2.1,0.3l1,0.2l0.6,0.5l0.6,0l1.6,0.4l0.3,0.4L68.3,2h0.4l0.1,0.2l0.6,0.4
	L69.6,3h0.5L71,3.6l-0.1,0.3L71,4.2l0.7-0.1v0.5H72l0.1,0.2L73,5.4l0.3,0.4l0.1,0.3l0.4,0.2l0,0.3l0.3-0.1l1.5,1.8l-0.2,0.4l0.7,0.1
	l0.1,0.6l0,0.3L76,9.9l0.1,0.2l0.5,0.1l0.8,1.4l0.1,0.8l0.4,0.7l-0.3,0.4l0.2,0.2L78.5,15.8z M42,18.9l-0.1,0.3l0.2,0.1l0-0.2
	L42,18.9z M44.3,19.4l0.1-0.3l0-0.3L44.2,19L44.3,19.4z M44.2,20.7l0.2,0.2v-0.3L44.2,20.7z M44.3,18.3l0.2,0.2l0.1-0.2l0-1.1
	l0.3-0.4h-0.4l-0.2,0.5v0.7L44.3,18.3z M44.1,23.1l0.3,0l0.2-0.1l-0.4-0.4l-0.1,0.2V23.1z M44.3,22l0-0.2l-0.2-0.1L44,21.9L44.3,22z
	 M44,11.8l0,0.3l0.3,0.1l0-0.3L44,11.8z M44.5,14.6h-0.2v0.1h0.2V14.6z M44.4,15.4h-0.2L44,15.7l0.3,0.1l-0.1,0.4l0,0.2l0.3,0.1
	l0.1-0.5l0.1-0.3l-0.1-0.2L44.4,15.4z M44.7,13.3l0,0.3l0.2-0.1L44.7,13.3z M46.8,23.4v-0.3l-0.1-0.2l0.1-0.2l-0.4-0.1l0.1,0.6
	l-0.1,0.3H46.8z M46.6,19.7l-0.3-0.1l0.1,0.2l0.3,0.1L46.6,19.7z M46.7,19.3l0-0.3l-0.1-0.2l-0.2,0v0.3l0.1,0.2L46.7,19.3z
	 M46.3,20.2l0.1,0.3l0.2,0.2l-0.1-0.3L46.3,20.2z M46.2,24.5l0.2,0.2l0.1-0.2l-0.1-0.2l-0.2-0.1L46.2,24.5z M45.8,18.4h0.3l0.7,0.3
	l0.1-0.1l-0.2-0.2l0.2-0.8l-0.1-0.2l-0.4,0.2h-0.3L46,17.3l0.1-0.1l0.2,0l-0.2-0.3l-0.2,0.1l-0.2,0.5l0,0.3l0.2,0.1L45.8,18.4z
	 M46,7.9v0.2l-0.1,0.2l0.2-0.1L46,7.9z M46.2,7.4h-0.2v0.2h0.2V7.4z M46.7,7.2l-0.4,0l0.2,0.3h0.3L46.7,7.2z M46.4,8.3l0.1,0.2
	l0.2-0.1l0-0.3h-0.3L46.4,8.3z M46.9,9.8l-0.2-0.5l0.1-0.2l-0.3-0.2l-0.3,0L46,10.1l0,0.3l0.3,0l0.1,0.3l0.2,0.2v0.3l-0.1,0.3
	l-0.4,0.1l0.2-0.2l0.1-0.4L46,10.9l-0.2,0.3l0.2,0.5l0.2,0.2v1.3l0.2,0.4l0.2,0.1L47,12l-0.1-0.2l0.2-1.4L46.8,10L46.9,9.8z
	 M45.8,13.8L46,14l0-0.3l-0.1-0.1L45.8,13.8z M46.2,13.8v0.5L46,14.5l-0.3-0.1l-0.2,0l0.1,0.2l0.4,0.2v0.3l0.3,0l0.2,0.1l-0.2,0.2
	l-0.6,0.3l0.2,0.9l0.9,0.1v-0.3l-0.6-0.6l0.2-0.1H47l-0.1-0.3l0-0.5l0.2-0.4L46.2,13.8z M47.2,16.8H47V17h0.2V16.8z M48.4,24h0.2
	l-0.2-0.2V24z M48.4,22.5l0.2,0l0.1-0.2h-0.3L48.4,22.5z M48.8,21v-0.7h-0.3l0.1,0.5L48.8,21z M48.6,19.8l0.1-0.2v-0.2l-0.3-0.1
	l0,0.3l0,0.3L48.6,19.8z M48.8,18.3l0,0.3l0.2-0.2l0.1-0.5L49,17.7l-0.4-0.4l-0.3,0.1l-0.3-0.1l0.1,0.3L48.8,18.3z M48.2,15.6
	l0.3,0.1v0.3l-0.3,0.4l0,0.2l0.4,0.3l0.2-0.1l-0.2-0.1l0-0.3h0.4v-1.1l-0.1-0.5l0.2-0.2l-0.1-0.2l-0.1,0.3l-0.3,0.1l-0.3,0.1
	l0.1,0.6L48.2,15.6z M47.9,19.6l0.1,0.2l0.1-0.5l-0.2-0.1V19.6z M47.9,18.7l0.2-0.1l-0.2-0.1V18.7z M48.2,11.4L48,11.2l-0.1,0.2
	L48.2,11.4z M47.9,9.4l0.4,0.1V9.2l0.1-0.2l0.1,0.2l0.4-0.4l0.1-0.3l-0.2,0.1l-0.1-0.1l-0.7,0.7L47.9,9.4z M47.8,5.4h-0.1v0.2
	l0.2,0.1L47.8,5.4z M48.5,6.5L48.1,7l-0.2,0.2l0.6,0.2l-0.2,0.3L47.8,8l0.1,0.6l0.2,0.1l0.1-0.2l0-0.3l-0.2-0.1l0.4-0.4l0.2,0.1
	l-0.1-0.3l0-0.5l0.2-0.8L48.5,6.5z M48.9,5.9l-0.1,0.2l0.2,0.1L48.9,5.9z M48.7,10.2l-0.1-0.2h-0.2l-0.2,0.5l0.1,0.8l0.4,0.2
	l0.1-0.2l-0.2,0.5L48.3,12l-0.1,0.3l0.2,0.5v0.6l-0.3,0.8h0.6l0.4-0.4l0-0.4L48.8,13l0.1-0.7l0-0.3l0.3-0.1L48.7,10.2z M69.2,30.6
	l0.1,0.5l0.2-0.1l0-0.2l-0.2-0.5l-0.2-0.1l-0.2,0L69.2,30.6z M69.7,28.9l0-0.2l-0.2-0.1l0,0.2l0,0.2L69.7,28.9z M68.9,29.8l0.1,0.2
	h0.4l0.1-0.3l-0.6-0.2V29.8z M67.2,29.8l0.1,0.2l0.2-0.7l0.1-0.2l-0.2,0l-0.3,0L67.2,29.8z M67.4,28.6l0.2,0.1l-0.1-0.6l-0.2-0.4
	v-0.8L67,26.8l-0.1,0.6l0.2,0.2l0,0.3l-0.3,0.1l-0.1,0.3H67L67.4,28.6z M67.6,25.8l-0.3-0.1l-0.2,0.1L66.9,26l0.1,0.3l0.3,0.1
	l0.3-0.1l-0.1-0.3L67.6,25.8z M66.8,28.8h-0.2l-0.1,0.1L66.8,28.8z M65.3,32l0-0.3l-0.3-0.1L65,32l0.2,0.2L65.3,32z M64.8,33.6
	l0.2,0l0.1-0.1l-0.3-0.1V33.6z M64.6,31.4l0.2-0.1l0.4-0.4l0.3-0.1l0.1-0.2l0-0.7l-0.3-0.4l-0.3-0.1l0,0.4l-0.1,0.8l0,0.4l-0.4,0.2
	l-0.1,0.2L64.6,31.4z M65.1,27.5v0.4l0.2,0l0.1-0.1L65.1,27.5z M65.3,26.2l0-0.3l-0.1,0l-0.2,0l0.1,0.2L65.3,26.2z M65.3,28L65,28.2
	l0.1,0.3l0.3-0.1l0-0.2L65.3,28z M65,28.9h0.3l0.1-0.2h-0.2L65,28.9z M63.7,29.8l0.1-0.2l-0.3,0l-0.1,0.2L63.7,29.8z M62.7,29.9
	l-0.1,0.4l0.2-0.1l0.3-0.7l-0.3-0.4h-0.2l0.2,0.3L62.7,29.9z M62.7,29l0.6-0.1v-0.4l-0.1-0.1l-0.4,0.2l-0.1,0.2L62.7,29z M63.2,30.5
	l-0.3,0.2l-0.2,0.2l0.1,0.1l0.2,0l-0.1,0l0.5-0.1v-0.3H63.2z M62.7,32.4l0.1,0.1l0,0.9h0.5l0-0.3l-0.4-0.4l0.3-0.1l0.1-0.7l0.2-0.1
	l-0.4-0.3h-0.4l0.1,0.3l-0.3,0.4L62.7,32.4z M61.4,30.5l-0.2-0.1L61,30.6V31l0.3,0L61.4,30.5z M60.8,29.5l-0.1,0.4l0.3,0l0.2-0.2
	L60.8,29.5z M61.2,28.4v-0.2H61l0,0.2L61.2,28.4z M60.8,30.5l0.4,0v-0.2l-0.2-0.1l-0.1,0.1L60.8,30.5z M60.6,32.5l0-0.6l0.5-0.3
	l-0.1-0.4l-0.2-0.1l-0.4,0.7L60.3,32L60.6,32.5z M59.1,29.4v-0.8l-0.3-0.1l-0.2,1.1L59.1,29.4z M58.5,32.2l0.3,0.1V32l-0.2-0.3
	L58.5,32V32.2z M58.7,30.6l0.1-0.2l-0.1-0.2l-0.2,0.1l-0.3,0.6L58.7,30.6z M57,29.3l-0.2,0.6l0,0.3l0.5,0.2l0.1-0.3l-0.1-0.6
	L57,29.3z M57.1,28.6L57,28.4l0,0.3l0,0.2L57.1,28.6z M56.6,30.9l0.3,0.3l0,0.3h0.3L57,30.6h-0.4L56.6,30.9z M54.8,32.1l0.2-0.1
	l0-0.2l-0.2-0.1l0,0.2V32.1z M54.7,30.9l0.5-0.2l0-0.4l-0.1-0.2L55,30.3l-0.5,0.3l-0.1,0.3L54.7,30.9z M55.4,30l-0.1-0.2v0.2
	L55.4,30z M54.9,28.1v-0.4l-0.2-0.1V28L54.9,28.1z M52.6,31.9l0.3-0.4l-0.2-0.1l-0.2,0.4L52.6,31.9z M52.8,27.2l-0.2,0.1l0.1,0.1
	L52.8,27.2z M52.8,30.8h-0.1V31h0.1V30.8z M52.5,29.8l0.1,0.1l0.1-0.3l-0.3-0.1L52.5,29.8z M52.8,28.2l0-0.2l-0.2-0.1l-0.1,0.4H52.8
	z M50.6,26.2l0.2-0.2h-0.2L50.6,26.2z M50.2,26.9l0.2,0l0-0.2l-0.2-0.1l-0.1,0.2V26.9z M50.3,24.6l0.2,0l-0.2-0.1l-0.2,0L50.3,24.6z
	 M50.3,6.3l-0.2,0.2l0.4,0.2l0.2-0.4L50.3,6.3z M50.9,12.3l-0.3,0l-0.1,0.1l0.1,0.2l0.2-0.1l-0.1-0.1L50.9,12.3z M51,10.2V10h-0.2
	v0.2H51z M50.8,8.7V8.2h-0.2v0.5L50.8,8.7z M50.7,11.6l-0.1-0.1v0.4l0.1-0.1V11.6z M50.6,14l-0.1,0.3h0.2L50.6,14z M50.5,15.1
	l-0.1,0.1l-0.1,0.2l0.4,0.2l0-0.3L50.5,15.1z M50.3,10.4l0.1,0.8l0.2-0.2l0-0.7l0.1-0.3l-0.2-0.1l-0.4,0L50.3,10.4z M51,5.2h-0.3
	v0.4h0.4L51,5.2z M50.9,7.3L50.8,7l-0.3,0.1l-0.3,0.3l-0.1,0.3l0.3-0.1l0.6,0.2L50.9,7.3z M52.2,4.6l0,0.1l0.1,0.1l0.1-0.2L52.2,4.6
	z M52.6,6L52.6,6l-0.1,0.2l0.2,0.1l0.1-0.2L52.6,6z M52.6,7l0,0.5l0,0.3l0.2-0.1l0-0.2L52.6,7z M52.5,11.5l0.1,0.1l0.1-0.1H52.5z
	 M52.8,10.4v0.3l0.2,0.1l0.1-0.4L52.8,10.4z M54.2,8.7l0.1,0.2l0.2,0l-0.2-0.2H54.2z M54.3,6.3l0.2-0.1l-0.1-0.1l-0.1,0.1V6.3z
	 M54.8,3.3h-0.3l-0.1,0.2l0.2,0.4l0.3-0.2L55,3.5L54.8,3.3z M54.7,8.3v0.1h0.1V8.3H54.7z M56.6,6.6l-0.2,0l-0.1,0.1l0.4,0.1
	L56.6,6.6z M56.6,7.3L57,7.7l0.1-0.3L57,7.1l-0.3,0L56.6,7.3z M57.1,5.6L57,5.7v0.2h0.3l0.1-0.2L57.1,5.6z M58.6,6.6V6.3l-0.2-0.1V7
	h0.2l0.4,0.2L59,6.9L58.6,6.6z M59.3,6l-0.2-0.4l0,0.3L59.3,6z M59.1,5.3l0.1,0.2l0.3-0.4h-0.4V5.3z M59.6,4h-0.3l0.1,0.3l0.2-0.1V4
	z M60,4.6v0.1l0.2,0.1L60,4.6z M61,7.6l0.2,0.2V7.6L61,7.3L61,7.6z M61.3,6.3l0.1-0.1l-0.2,0L61.3,6.3z M61.1,5.2l0.1,0.1l0.2-0.2
	L61.2,5L61.1,5.2z M61.5,4h-0.2v0.1h0.2V4z M62.6,3.7L62.4,4l0.3,0.1L62.6,3.7z M62.7,6.7l-0.1,0.1l0.2-0.1H62.7z M63.4,3.6l0-0.1
	l-0.1,0.4l0,0.3L63.5,4l0-0.4L63.4,3.6z M63.4,4.6h-0.3l0,0.2h0.4L63.4,4.6z M63.2,6.2v0.3l0.2,0.1l0.1-0.6l-0.1-0.2L63.2,6.2z
	 M63.5,5.3l-0.3,0l0.1,0.3h0.2L63.5,5.3z M63.2,7.3l-0.1,0.4l0.5-0.2L63.2,7.3z M65,4.1v0.3l-0.1,0.2l-0.1,0.1l0.1,0.2l0.5-0.2
	l0.1-0.3L65,4.1z M65.4,6.6l-0.2-0.1l-0.1-0.2L65,6.6l0.1,0.3L65.3,7l-0.2-0.2L65.4,6.6z M65.1,5.6l-0.2-0.1v0.2L65.1,5.6z
	 M65.6,5.6l-0.2-0.2l0,0.6l0.2,0.2L65.6,5.6z M66.9,4.4h-0.2v0.2h0.2V4.4z M67.4,3.4l-0.1-0.3l-0.2,0.5l0.1,0.3l0.3,0L67.4,3.4z
	 M67.4,4.4l-0.2,0.1L67.3,5l-0.2,0.2h0.4l0.1-0.6L67.4,4.4z M67.5,6.2l-0.7-0.2l-0.1,0.1l0,0.3l0.5,0.1l-0.4,0.7v0.4h0.6l0.2,0.2
	l0-0.4l-0.1-0.5l0.2-0.4L67.5,6.2z M67.3,10.6H67l0,0.4l0.2,0.1l0.1-0.2V10.6z M67.4,9.4h-0.3l0.1,0.1L67.4,9.4z M67.9,13.4L67.4,12
	l0-0.6H67l-0.4,0.1l-0.8-0.6l-0.2-0.4l-0.2,0L65.4,10h-0.5l-1.6-0.6L63,9.1h-0.2l-0.2-0.2l-0.3,0.3l-0.5-0.2l-0.8,0L60.7,9l-0.4-0.1
	l-1.2,0.1l-0.8,0l-0.4,0.3h-0.6l-0.5,0.2L56,9.8l-0.6,0.1l-0.7,0.5l-0.3,0l-0.1,0.5l-0.9,0.5l-0.7,0.7l-0.5,0.7L52,12.8L51.6,14
	l-0.2,0.1l0,0.3L51,15.6l-0.1,0.9l-0.5,0.3l-0.2-0.2l-0.2,0l0,0.3l0.1,0.2l0.1-0.1l0.2,0l0.2,0.1l0.2,0.6l-0.1,0.2l-0.2,0l0,0.5
	l0.3,0.9h-0.2l-0.1,0.1l0.3,0.2V20l0.3,0.4l0,0.5l1.2,2.4l0,0.3l1.2,1.1L54,25l0.1,0.3h0.3l0.2,0.1l0,0.3l0.6,0l0.5,0.4l0.2,0.1
	l0.4,0l0.5,0.3l0.3,0.4l0.4-0.2l0.3,0l0.4,0.4l0.3-0.1H59l1.3,0.2l0.2-0.1l0.7,0.4l0.2-0.1l0.2-0.4l0.2-0.1l0.5,0l0.9-0.4l0.5-0.1
	l0.3,0l0.1-0.2l0.9-0.6l0.8-0.2l0.6-0.8l0.9-0.6l0.3-0.1l0-0.3l0.2-0.8l0.3-0.4l0.4-0.3l0.1-0.6l0.2-0.5l0.3-0.1v0.3l0.1,0.1
	l0.1-0.2h0.5l0-0.3l-0.2-0.2l0.2-0.4l-0.1-0.7l-0.1-0.2l-0.3,0.2l0-0.3l0.5-1.5l-0.1-0.3l0.1-0.2l-0.4-0.2v-0.5l-0.4-1l0-0.6
	l-0.2-0.2l-0.1-0.3l0.3,0.1l0.2-0.1L68.7,14L67.9,13.4z M69.2,23.3l0.2-0.1l0.2-0.4l0-1l-0.4-0.2l0,1.5L69.2,23.3z M69.7,12.3
	L69.6,12l-0.1,0.3H69.7z M69.1,8.2v0.3l0.3,0.1V7.9l-0.2-0.1V8L69.1,8.2z M69.1,8.9l-0.3,0.4l0.1,0.2l0.4-0.1l0.2-0.2l0-0.3
	L69.1,8.9z M68.7,11.3l0.4,0.1l0.1-0.2l-0.3-0.1L68.7,11.3z M69.3,10l-0.1,0.2h0.2L69.3,10z M68.7,7.5l0.1,0.3l0.4-0.6l0.2,0.5
	l0.2-0.4l0-0.6l-0.5,0.1h-0.3l0,0.3L68.7,7.5z M69.4,4.7V5l0.2,0.1l0-0.3L69.4,4.7z M69.6,5.2h-0.3l-0.2,0.7l0,0.2l0.2-0.1h0.3
	l0.1-0.6L69.6,5.2z M69.3,11.3v0.3l0.1,0.1l0.1-0.2l0.1,0.2l0.3-0.3L69.3,11.3z M69.5,23.7l-0.2-0.1l-0.2,0l0.1,0.5l0.4,0.2l0.1-0.6
	H69.5z M69.1,25.2l0.5-0.3l0.1-0.3l-0.1-0.2l-0.1,0.2l-0.2-0.1L69.1,25.2z M69.4,25.5l0,0.4l-0.2,0.2l-0.3,0l0,0.3l0.3,0.4L69,26.9
	l0,0.3l0.1,0.2L69,28.1l0,0.2l0.2,0.1l0.2-0.1v-0.2l-0.1-0.2l0.3-0.1l-0.2-0.7l0.1,0.2l0.4,0L69.4,25.5z M70.2,3.6l0.1,0.2l0.1-0.1
	L70.2,3.6z M72,22.5l-0.3-0.8l0.2-0.8l-0.3-0.4l-0.3,0.1v0.5l-0.2,0.1l-0.1,0.2l-0.2-0.1v0.4l0.2,0.2h0.3l-0.1,0.3v0.6l0.2,0.5
	l0.2,0.2l0.3-0.7l-0.1-0.1H72z M71.6,24.8l0.3,0.1l-0.3-1.5h-0.3l-0.1,0.8l0.2,0.4L71.6,24.8z M71.4,25.5l0.4,0.2l0-0.3L71.6,25
	l-0.1,0.3L71.4,25.5z M71.2,26.8l0.1,0.3l0.3-0.2l-0.3,1l0,0.7l0.1,0.3l-0.5,0l0.2,0.2l0.3,0l0,0.3l0.2,0.1l0.1-1.1l0-0.7l0.3-0.4
	l0-0.2l-0.2,0.1l-0.1-0.4l0.1-0.3l0-0.5L71.4,26l-0.1-0.3l-0.1,0L71,25.4l-0.2-0.2l0.2,1.1l0.5,0.2L71.2,26.8z M70.9,22.4l0.1,0.1
	v-0.2l-0.2-0.1L70.9,22.4z M70.7,16.7l0.1,0.1l0.1-0.1v0.2l0.4,0.1l0.2-0.2l0.4-1.1l-0.2-0.1l-0.1-0.2l-0.2-0.1l0.1,0.6l-0.2,0.5
	l-0.4,0.2l-0.2-0.1V16.7z M70.8,15.2l0,0.2l0.1,0.1L70.8,15.2z M71.1,7.4l0.5,0.4l0.1-0.4H71.1z M71,8.3l0.1,0.2l0.1-0.2l0.1,0.3
	l0-0.3L71.1,8L71,8.3z M71.7,10.6l-0.3-0.3V9.9l0.2-0.4l-0.2-0.2l-0.1,0.3l0,0.2l-0.4-0.3L71,9.8l0.3,0.4l0,0.3l-0.2,0.2l0,0.3
	l0.4,0.1l0.3,0L71.7,10.6z M71.6,11.7l-0.4,0l-0.2,0l0.1,0.2l0.2,1.1l0.1,0.2l0.2,0.1l0.1-0.5L71.6,11.7z M71.8,13.8l-0.6-0.1
	L71,14.2l0,0.2l0.2-0.4l0.2,0l0.3,0.1V13.8z M71.7,14.3l-0.1,0.2l-0.2,0l0,0.5l-0.1,0.2l0.5-0.2l0-0.3l0.1-0.3L71.7,14.3z
	 M71.9,18.9l-0.2-0.5l0.2-1.1l-0.4,0l-0.3,1.1l-0.1,0.3l0.3,0.1l0.1,0.3l-0.3,0.7l0.2,0.5l0.2,0.2l0-0.6l0.2-0.4l0.4-0.4L71.9,18.9z
	 M72,21.4L72,21.6h0.2l0.1-0.2H72z M73.4,28.9l0.2,0.1l-0.1-0.2l-0.2-0.1L73.4,28.9z M73.5,27.7v-0.3l0.3-0.7v-0.2h-0.3l-0.1,0.2
	v0.5l-0.1,0.3L73.5,27.7z M73.6,16.9l0.2,0.1l0-0.3L73.8,16l-0.2,0.1l-0.2,0.5l-0.4,0.1l0.2,0.4l0.2,0.2h0.3l0-0.3L73.6,16.9z
	 M72.9,15.7l0.3,0l-0.1-0.3l-0.2-0.1V15.7z M72.9,9L73,9.2L73.2,9H72.9z M73.7,12.7l-0.3,0.1l-0.3,0.5L73,13.5l0.3,0.1l0.3,0.4h0.2
	l0-0.6l-0.1,0.1V13l-0.1-0.1L73.7,12.7z M73.4,7.8V8h0.1l0.1-0.2L73.4,7.8z M73.6,9.9l-0.2-0.1v0.3l0.2,0.3l0.1-0.2L73.6,9.9z
	 M73.7,10.6l-0.4,0.1l-0.2,0.2l0.6,0.3l0.3-0.5L73.7,10.6z M74,15.2l-0.2-0.4l-0.3,0.1l-0.5-0.3v0.5l1.1,0.3V15.2z M73.9,22.8
	l-0.1-0.5l0-0.4l-0.3-0.4l0.2-0.2L73.4,21l0-0.5l0.1-0.5l0.5-0.6l-0.3-0.3v-0.3l0.3-0.1l-0.1-1.1l-0.1-0.2l-0.2,0.1l-0.3,0.7
	l0.5,0.1l0.1,0.2h-0.7L73,18.9l0.4,0.3v0.6l-0.3,0.1l0.1,0.3l0,0.4l-0.2,0.2l0.4,1.2l0.3,0.1l0.2,0.2l-0.6,0.3v0.4l0.3,0.7l0.3,0
	l0.2-0.1l-0.2-0.4L73.9,22.8z M73.8,24.5l0,0.3l-0.2,0.4l0,0.3l-0.3,0.1l0,0.4l0.2,0.1l0-0.3l0.1-0.1l0.3,0l0-0.9l0.1-0.3L73.8,24.5
	z M74.5,21.1l0,0.2l0.1,0.2l0.1-0.3L74.5,21.1z M76,24.9l-0.3-0.1l-0.6-0.1v0.1l0.2,0.1l0.1,0.2l0,0.6l-0.3,0.1l0,0.2l0.3-0.2
	l0.1-0.2l0.4,0.2l-0.1-0.6L76,24.9z M75.1,26.9l0.4-0.1v-0.3l0.3-0.3l-0.2-0.1h-0.2l-0.3,0.3l0,0.3L75.1,26.9z M75,23.5l0.3,0.2
	l0.3,0l0,0.3l0.2,0.2l0.3-0.4v-0.3l-0.4-0.7l0.1-0.2l0-0.5l0.2-0.2l0.1-0.5l-0.2-0.8l-0.4-0.4h-0.4l0.1,0.2l0.2,0.8l0.1,0.3l-0.1,0
	l-0.1,0.2v0.8L75,22.6V23.5z M75.2,18.6l-0.1,0.7l0,0.3l0.2,0.1l0.8,0.1l0-0.3l0.1-0.9L75.7,19l-0.3-0.4H75.2z M75.5,15.6h-0.1v0.1
	h0.1V15.6z M75.5,16.5V17l-0.1,0.3h0.3l0.2-0.2l-0.2-0.5l0.2-0.1l0.1-0.3L75.8,16L75.5,16.5z M76.2,14.1l-0.1-0.1h-0.2l0,0.8
	l0.2,0.1l0.1-0.2L76.2,14.1z M76.1,15.6L76,15.9h0.2L76.1,15.6z M77.6,13.2l-0.2,0l0.1,0.2l0.2,0.1L77.6,13.2z M75.1,22.9l0.1-0.4
	l0.1,0.2L75.1,22.9z M75.4,22.9v-0.3l0.1,0.4L75.4,22.9z M71.2,21.1l0.2,0.1l-0.2,0.1V21.1z M69,21l-0.1-0.1l0-0.2H69L69,21z
	 M67,7.2L67,7l0.3,0l-0.1,0.3H67z M48.7,15.6l-0.2,0.1l0.1-0.3L48.7,15.6z M46.3,12.2h0.1v0.2h-0.1V12.2z M0.4,26.7l-0.1,0.1H0
	l0-0.3l0.1-0.1L0.4,26.7z M38.2,21.6l0.1,0.3l-0.2,0.5l0,1.1l0.1,0.6L38,25l0.2,1.6L38,27.4l-0.4-0.1l0.1,0.4L37.7,28l0.3,0.4
	l0.2,0.5l0,0.5L38,31.5l0.1,0.6l0,0.7L37.7,33l0.3,0.1l0.2,0.2l-0.1,0.2l0,0.6L38,34.5l-0.6,0.2v0.5l-0.3,0.1l-1.1-0.1l-0.4,0.2
	l-0.5-0.1l-0.4-0.4l-0.2,0.4l-0.6,0l-0.4-0.1l0.2-0.2l-0.2,0l-0.2,0.2h-3.2l-0.6-0.4l-0.3,0l-0.2-1.1l0.1-1.4l0.4-0.2l-0.1-0.1
	l-0.2,0l0-0.3L29,31.1l0.1-0.4l0.2-0.1l0.1-0.3l0.2-0.2h-0.5L29,29l0.1-2l0-0.8l0.2,0l0.2,0.1l0.2-0.2v-0.5l-0.5,0.2l0-0.6L29,24.2
	l0.2-0.2l0.1-0.5l0.1-0.2l-0.2-0.2l-0.2-0.5l0-0.5l0.2-0.4l0.2-0.1l-0.4-0.2l0-1.1l-0.2-0.1l-0.8-0.7l-0.1,0.2l0.1,0.3l-0.5,0.3
	l-0.4,0.4l0.1,0.4l0,0.3L27,21.8l-0.6,0.6l0.2,0.3l-0.6,0.4l0.2,0.6l-0.2,0.2l-0.1,0.6l-0.3,0l-0.2,0.1v0.5l-0.6,0.9l-0.8,1.7
	l-0.6,0.2l0.1,0.5l0,0.4l-0.4,0.7l-0.5-0.1l0.3,0.4l0,0.2L23,30.3l-0.4-0.3l0,0.2l0.1,0.1h0.3l-0.2,0.5l-0.9,0.5l-0.1,0.3l-0.3,0.1
	l-0.3-0.1L20.8,32l-0.4-0.2l-0.4,0l-0.1-0.2l-0.6,0.1l-1.5,0.1l-0.3,0.1v-0.3l-0.2-0.2l-0.1,0.3l-0.8-0.3L16,31.1l-0.3-0.5l-0.5-0.4
	L15,29.5l-0.8-1.1V28l-0.4-0.6l0-0.4l-1.1-1.8l0.1-0.4l-0.6-0.7v-0.3l-0.4-0.2l0-0.6l-0.7-1.1l0-0.3l-0.4-0.3l-0.3-0.4l-0.2-0.5
	L10,20.1l-0.1-0.2v-0.3l-0.8,0.8L9,20.7H8.8L8.6,21l0.2,0.2l0.5,0.1l-0.1,0.5l-0.2,0.1l0.2,0.5l0,0.4L8.9,23l0.3,1H8.9l0,0.5
	l0.2,0.5l0.1,0.5l0,0.3L9,26.1l0.1,1.1l0,0.8H8.8l0.5,0.4L9,29.5l0.2,0.1l0,0.3l-0.1,0.7L9.3,31l-0.2,0.4l0.2,1.1l-0.1,1.1l0.1,0.3
	l-0.5,0.9l-0.2,0.2l-0.3-0.1l-0.9,0.6L7,35.2l-0.7,0l-0.3-0.1l-0.4,0.2L4,35.2l-0.4-0.2l-0.1-0.2l-0.4,0.4l-0.5,0.1l-0.8-0.1
	l-0.5,0.1l-0.7-0.4l-0.3,0v-0.9l0.1-0.2l-0.3-0.2l0-1l-0.1-0.6L0,31.7l0.4-0.4l-0.1-0.6l0.1-0.2l-0.1-0.2l0-1.1l-0.1-0.3l0.5-0.2
	l0.1-0.9l-0.2-0.5l0.1-0.8L0.4,26l0-1.6l-0.1-0.6l0.4,0.1l0-0.3l-0.4-0.2l0-0.2l0.2-0.1l-0.2-0.5l0-0.4l-0.2-0.5l0.3-0.3l-0.1-0.3
	l0-0.8l-0.1-0.2l0.2-0.2l0.3-0.1l-0.2-0.2l-0.2-0.8l0.3,0l0.1-0.1l-0.3-0.1L0.1,18l0-0.6l0.2-0.8l-0.2-0.4v-1.6l0.2-1l-0.1-0.2
	l0-0.5l0.2-1.3l-0.1-0.2l0.2-0.5L0.1,9.8l0-0.5l0.2-0.5L0.3,8.6V8.3l0.1-0.2L0.1,7.7l0.1-1.4L0,5.9l0.2-1.1V2.1l0.1-0.7l0.4-0.3
	l0.4-0.4l0.3-0.1l1,0.2l1.1-0.1l0.3,0.1L3.9,1l0.5-0.2l0.9-0.1l0.2,0.4L6.1,1l0.7-0.4L8.9,1l0.5,0.2v0.4l0.4,0.3l0.6,0.9l0.4,1
	l0.4,0.7L11,4.9l0.6,0.4L12,5.8v0.6l0.4,0.3l0.3,0.7l-0.1,0.5l0.8,0.9l0,0.3l0.7,0.7l0,0.3l-0.2,0.2l0.2,0.2h0.4l0.4,0.9l0.2,0.1
	l0.1,0.6l0.6,0.8v0.4l0.1,0.3l0.4,0.4l-0.1,0.4l0.4,0.3l0.3,0.4l0.3,0.7l0,0.6l0.3,0l0.2,0.5l0.4,0.4v0.5l0.2,0.2l0.2,0l0.1,1
	l0.5,0.1l0.2,0.2l0.8-0.3l0.3-1.1l0.6-0.5l-0.1-0.2l0.1-0.2l0.5,0.3l0.2-0.2l0-0.8l-0.1-0.6l0.7-0.8v-0.6l0.3-0.2l0.2,0.1l0.3,0
	l0.1-0.2v-0.3l-0.2,0.1l-0.1,0l0-0.2l0.3-0.3l0.1,0.2l0.5-0.9l0-0.3l-0.1-0.5l0.8-1.3l0.2-0.9l0.5-0.2l0.1-0.2l0-0.3l0.8-1.4
	l0.2-0.8l0.5-0.8l0.4-1.2l0.6-0.1L27.2,4l0.7-1.2l0.2-0.1l0.4-1.2l0.6-0.1l0.2-0.1V0.9h0.3l0.4-0.3L30.4,1l0.4-0.1l1.6-0.1L33,0.5
	l0.4,0.2l0.6,0l1.1-0.1l0.2-0.1L36,1l0.2-0.2l0.5-0.1l0.6,0.1L37.8,1l-0.1,0.3L38,1.6l0.2,0.8L38.1,3l-0.2,0.5l0.3,0.2l0,0.4
	l0.1,1.1L38,6l-0.2,0.2l0.2,0.4l0,0.3h-0.2l-0.2-0.2l-0.6,0.6l0.2,0.2l0.5,0L38,7.5l-0.5,0.2l0.1,0.9l-0.2,0.5l0.3,0.3H38l0.1,0.7
	l-0.5,0l0.3,0.4l0.1,0.3l0,0.4l-0.2,0.1l-0.3,0l0.1,0.4l0.5-0.4l0.1,0.9l-0.4,0.4l0,0.5l-0.5,0.1l0.1,0.2l0.3,0.1l0.3-0.1l0,0.5
	l0.2,0.2l-0.1,0.3v0.5l0.2,1l-0.2,0.7l0.1,0.4l-0.1,1l0,0.5l-0.5,0.1l0.1,0.2l0.3,0v0.6l-0.1,0.2l-0.2,0.1l0.2,0.3l0.2,0.2l0,0.8
	L38,21.1l-0.2,0.1l0.1,0.3L38.2,21.6z M1.9,21.6l0-0.3l-0.2-0.1l0,0.3L1.9,21.6z M1.6,24.8L2,24.9l0-0.3l-0.2,0.1L1.6,24.8z
	 M1.9,20.5v-0.2H1.7L1.9,20.5z M1.8,16.4L2,16.3V16l-0.3,0.1L1.8,16.4z M2,13.3l0.2-0.2H1.9L2,13.3z M2.1,23.4L2.1,23.4l0,0.1
	l0.1-0.2L2.1,23.4z M1.9,23.8L1.8,24l0.1,0.2l0.2-0.1l0.1-0.2L1.9,23.8z M1.9,31.6l0-0.4l-0.2,0l0,0.2l0.1,0.2L1.9,31.6z M1.5,33.5
	l0.2,0.1l0.1-0.3l-0.4-0.3L1.5,33.5z M1.3,29.8L1.6,30l0.1-0.3l0-0.2l-0.3-0.1l-0.1,0.2V29.8z M1.7,28.9l0.3-1l0-0.8l-0.2,0.2
	l-0.3,1.3l-0.2,0.3H1.7z M2.1,26.6L2,26.1l-0.2-0.1l-0.1,0.3l-0.1,0.2l0.2,0.2H2.1z M0.8,27.1H1l0.1-0.2l-0.2,0V27.1z M1.1,25v-0.2
	l-0.2,0L1.1,25z M1,24l-0.2,0l0.4,0.4l0.2-0.1L1,24z M1.6,25.5L1.6,25.5l0.5,0.2l-0.2-0.4l-0.3,0.1l-0.2,0.2L1.6,25.5z M1.6,12.1
	l0.5,0.1l0.3,0.1l-0.1-0.2L2.1,12l0.1-0.6l-0.1-0.2v0.2l-0.2-0.1l0,0.3l-0.2,0.2l-0.2,0.1L1.6,12.1z M2.3,5L2.2,4.5L2,4.3L1.9,4.9
	v1.1L1.6,6.4v1.1L1.6,7.7l0.3,0.1L1.6,8l0.3,0l0.2,0L1.9,7.7L2,7.3L1.9,7.1L2,6.5l0.1-0.2h0.1V5z M2,9.7L1.9,9.4l0.2-0.1L2,8.8
	l-0.3,0v0.3L1.6,9.2L1.6,9.5l0.3,0L1.7,9.8l0.2,0l0.1,0.2l0.2,0L2,9.7z M2.5,10.7l-0.2-0.4l0,0.6l0.2,0.2V10.7z M5.7,17.7l0-0.2
	l-0.2-0.1l-0.1,0.3H5.7z M5.5,17.8V18h0.2v-0.1H5.5z M5.5,26.8l0.2,0.1l0.2,0.3l0.2-1.1L5.9,26l-0.3,0l0,0.3L5.5,26.8z M5.6,24.1
	l0.1,0.3h0.3l0.2-0.1l0-0.3l-0.3-0.1l-0.1-0.3H5.5l-0.2,0.1l0,0.3L5.6,24.1z M5.9,13.4l-0.1,0.3l0.1,0.2l0.2-0.2l0.1-0.3H5.9z
	 M6.2,13v-0.3l-0.3,0.1l-0.1,0.3L6.2,13z M5.9,18.1l-0.2-0.1l0.2,0.7l0.3,0l0.1-0.7L5.9,18.1z M6.2,17l-0.3-0.1v0.3h0.2L6.2,17z
	 M5.8,23.1l0.1-0.4L6,22.9l-0.1-0.2l-0.2,0l-0.1,0.2L5.4,23L5.8,23.1z M5.8,12.3l0.3-0.4l-0.4-0.1l0,0.3H5.6l-0.2,0.1l0.1,0.2
	L5.8,12.3z M5.8,11.4v0.2l-0.1,0.2h0.4l0.1-0.2l-0.1-0.7l-0.2-0.2l-0.6-0.2L5.8,11.4z M5.9,8.3l0.2-0.2h0.2L6.2,7.8L5.9,7.7L5.6,8.1
	l0,0.3L5.9,8.3z M5.6,9l0.1,0.2L5.8,9l0.3-0.1l0-0.3l-0.3,0L5.7,8.8L5.6,9z M5.6,7.4l0.8,0.2l0.1-0.4L6.2,7L5.7,7.3V7.1L5.6,6.9
	l0,0.3L5.6,7.4z M6.4,14.8v-0.2l-0.2-0.1L6,14.7L6,15l0.3,0L6.4,14.8z M6.2,25.1l-0.4-0.3l-0.1,0.3l0.1,0.3l0.5,0.2L6.2,25.1z
	 M6.2,29v-0.1H6.1V29H6.2z M5.5,30.4l0.1,0.2l0.2,0l-0.2,0.3L5.9,31l0.2-0.8L5.5,30V30.4z M5.3,29l0.2-0.1l0.1-0.3l0-0.2H5.3l0,0.2
	L5.3,29z M5.6,28l0.3-0.5l0-0.3l-0.2-0.1l-0.2,0.2v0.2L5.2,28L5.6,28z M3.8,30.5L4,30.9L4.3,31l-0.1-0.6l0-0.7l-0.5,0.5l-0.1,0.3
	L3.8,30.5z M3.6,26.9l-0.2,0.4l0.2,0.4l0.2,1.3l0.3,0.4h0.1V29L4,28.6l0.2-0.4l0-0.5l-0.1-0.3l0.2-0.4l-0.5-1.1v-0.3h0.5l0,0.2
	l0.1,0.1v-0.2l-0.6-0.5L3.9,25l0.3,0l0.1-0.2v-0.3l-0.1-0.2l-0.3,0l-0.4,0.9l0,0.3l0,0.4L3.3,26l-0.1-0.2L3.6,26.9z M3.5,12.5
	l-0.3,0l0.2,0.3l0.4-0.1l0.3-0.4l-0.2-0.2L3.5,12.5z M3.6,11.6l-0.1-0.2L3.2,12l0.1,0.2L3.6,11.6z M3.4,13.4l0.1,0.2l0.1-0.1
	L3.4,13.4z M4.4,21.8v-0.3l-0.2-0.2l-0.5,0.1l-0.2,0.1l0.3,0.2l0.3-0.1L4.4,21.8z M4.2,23.8H4V24h0.1V23.8z M4.4,19.9l-0.1-0.3
	l-0.2-0.1L4,20l0.1,0.2l0.2-0.1L4.4,19.9z M4.2,16.6h0.2l-0.2-0.3l-0.3,0.1L4.2,16.6z M4.1,17.2v0.2h0.1v-0.2H4.1z M3.7,17.7l0,0.2
	L3.9,18L4,17.8L3.7,17.7z M3.9,10.7l0.2,0.1l0.1-0.4L4.2,9.5L3.8,9.7l-0.1,0.5L3.9,10.7z M4.1,11.5l0,0.3l0.2,0.1l0.1-0.2l-0.1-0.2
	H4.1z M4.3,7V6.9H4.2V7H4.3z M4.3,17.1l0.2,0.2V17l-0.1-0.1L4.3,17.1z M4.4,18.5l-0.4-0.2l-0.1,0.3l0,0.3L4,19.1l0.3,0l0.2-0.4
	L4.4,18.5z M3.2,22.8l0.4-0.1l0,0.3l-0.1,0.3l-0.1-0.4v0.9l0.5-0.1h0.3L4,23.2l-0.3-0.4L4,22.6l0.1-0.3l-0.2-0.2l-0.5,0l-0.3,0
	L3.2,22.8z M4,3.7L3.8,3.6v0.7L3.6,4.6l0.8-0.2L4,3.7z M4.5,4.8L4,4.9L3.9,5.1L3.8,4.8L3.6,4.7L3.5,5.1l0,0.3L4,5.7L4.1,6l-0.4,0
	L3.6,6.1l0.3,0.2L3.8,6.5l-0.3,0L3.1,6.9l0.4,0.8l0.3-0.1l0.2,0.2L3.5,8.3l0,0.6l-0.2,0L3.2,9l0.1,0.3l0.3,0.1l0.1-0.2l0.6-0.4
	L4,8.6V8.3l0.2-0.6L3.9,7.4L3.8,6.9L4,7l0-0.3L3.9,6.4h0.2l0.2-0.1l0.2-0.6l0-0.6L4.5,4.8z M5.2,21.8l0.1,0.3L5.5,22l0.1-0.2l-0.2,0
	L5.2,21.8z M6,3L5.7,3l0,0.2l0.2,0l0.2-0.1L6,3z M5.5,4.7l0.2-0.1l0-0.2L5.5,4.7z M6.3,3.9L6.1,3.8L6,4.6l0.3,0.1l0.2-0.2l0.1-0.3
	L6.3,3.9z M6.3,6.4L6.2,6.2l0-0.5L6,5.6L6.1,5L5.5,5.1L5.3,5.3v0.3L5.5,6h0.2L5.6,6.9l0.5-0.2l0.5-0.1L6.3,6.4z M6.5,6.7l0,0.3
	l0.2,0L6.5,6.7z M8.4,18.8v-0.5H8.1l0,0.3L8.4,18.8z M8.1,23.7v-0.2H7.9l-0.1,0.2H8.1z M7.8,9.8l0,0.3l0.3,0L8.3,10L7.8,9.8z
	 M8.3,8.8L8.2,8.6L7.9,8.5L7.8,8.7l0.1,0.2L8.3,8.8z M7.8,11.1l-0.3,0l-0.1,0.3l0.4,0.1l0.2-0.1L7.8,11.1z M7.6,12.8v-0.3l-0.2-0.2
	l0,0.3L7.6,12.8z M7.3,7.7V8l0.2-0.1L7.3,7.7z M8,3.8L7.7,3.7l0.4,0.4L8,3.8z M7.5,4.5l0.3,0.3l0-0.4L7.5,4.5z M8.5,6.2L8,5.6
	L7.9,5.8l0,0.3L7.7,6.3L7.6,6.1L7.5,6.3l0.1,0.8h0.3l0.2,0.1l0.3,0L8.3,7L8,7l0-0.4l0.1-0.1l0.2,0.1l0.2-0.1L8.5,6.2z M8.4,13.2
	l-0.3,0.1l0.2,0.2l0.2,0L8.4,13.2z M8.1,13.9l0.2,0.2l0-0.3l-0.1-0.1L8.1,13.9z M8.4,15.8l-0.3-0.1L8.2,16L8.5,16L8.4,15.8z
	 M8.3,17.3l-0.1,0.1l0.2,0.1l0.1-0.1L8.3,17.3z M10.4,17.9l0-0.3l-0.2-0.1l0,0.3L10.4,17.9z M9.8,18.5l0.1,0.2l0.2,0v-0.3l-0.3-0.1
	V18.5z M10,12.6l0.2,0.5l0.2,0.1l0-0.2l-0.3-0.4l0.3-0.4l0-0.2l-0.3,0l-0.3,0L10,12.6z M9.8,8.3H9.6v0.1h0.2V8.3z M9.7,10.9l0,0.2
	l0.3,0.1l0.2,0.5l0.3-0.1l0-0.2l-0.2-0.6l-0.3,0l-0.2-0.1L9.7,10.9z M10.5,9.7l-0.4-0.4L10,9.6l0.1,0.2l0.3,0.1L10.5,9.7z M10.1,8.3
	l0.1,0.2l0.1-0.2l0-0.2L10,7.7L10.1,8.3z M10.4,3.8l-0.1,0.4L10.5,4L10.4,3.8z M10.3,13.6l0,0.5l-0.1,0.1l-0.1,0.2l0.1,0.3l0.3,0.1
	l0-1.3H10.3z M11.4,5.6L11.4,5.6l-0.3-0.1L11,5.6v0.2h0.4V5.6z M12.6,16.5l-0.1-0.1l0,0.2l0.1,0.1L12.6,16.5z M12.3,17.2l-0.2,0
	l0.1,0.2h0.3L12.3,17.2z M12.4,19.3L12.3,19l0,0.2L12.4,19.3z M12.3,18.1v-0.3L12,17.9L12.3,18.1z M12.1,16.1l0.1,0.2v-0.4L12,16
	L12.1,16.1z M12.3,12.3v-0.2L12.1,12l0,0.3l0.4,0.2L12.3,12.3z M12.4,13.4l-0.2-0.2h-0.5l0.4,0.4l0.2,0.1l0.2-0.1L12.4,13.4z
	 M12.3,14.2l-0.2,0.1l0.2,0.5l0.3,0.1l0.1-0.7H12.3z M13.1,11.4H13v0.2h0.1V11.4z M14,19.2h-0.2v0.2H14V19.2z M13.9,20.3v0.2
	l0.2,0.1L13.9,20.3z M14.1,20.7h-0.2l-0.1,0.3h0.3V20.7z M14.1,22.2l0.1,0.2l0.4-0.3l0.1-0.2l-0.3-0.2L14.1,22.2z M14.4,18v0.3
	l0.2-0.1l0.1-0.6l-0.3-0.1L14.4,18z M14.6,14.8v0.3l0.2-0.2L14.6,14.8z M14.8,15.6h-0.1v0.2h0.1V15.6z M14.7,18.9l-0.3-0.1L14.4,19
	l-0.1,0.2l0.2,0.2l-0.1,0.4l0.4,0.2l0-0.3l0.1-0.7L14.7,18.9z M16.7,22.5l0.2-0.2l-0.1-0.2l-0.1,0.2L16.7,22.5z M17.1,20.7l-0.2-0.2
	v0.5l-0.1,0.4l0.3-0.2l0.1-0.3L17.1,20.7z M18.6,24.7l0.4,0l0-0.3l-0.1-0.1L18.6,24.7z M18.9,20.8L18.8,21l0,0.2l0.2-0.2L18.9,20.8z
	 M20.8,21.3v0.3l0.2-0.1L20.8,21.3z M21.2,23.2h-0.3l0.1,0.2l0.2,0.1V23.2z M23,20.4l0,0.3l0.2-0.1l0.2-0.6L23.1,20L23,20.2V20.4z
	 M22.7,18.2l0.3,0.1l0.2-0.2l-0.2-0.5l-0.3-0.1l0,0.4V18.2z M22.7,15.6l-0.1,0.2l0.2,0.1l0-0.2L22.7,15.6z M22.8,16.2l-0.1,0.2
	l0.1,0.2l0.3,0.1l0.4-0.6l-0.1-0.3L23,16L22.8,16.2z M23,14.2L23,14.2l-0.1,0.3l0.2-0.1L23,14.2z M23.4,14.8l-0.2,0.4l0,0.2l0.2,0.1
	l0.1-0.6L23.4,14.8z M23.9,12.1l-0.1,0.2l-0.1,0.3l0.2,0l0.2-0.2l0-0.3L23.9,12.1z M25,21.8L25,21.8h0.3l0-0.2H25V21.8z M25.4,9.9
	l-0.2-0.2l0,0.5l0.1,0.6l0.1,0.1l0.1-0.2L25.4,9.9z M24.9,11.7l0.3,0.4l0.2,0l0.1-0.2L24.9,11.7z M25.5,13.8v-1.1l-0.1-0.2l-0.2-0.2
	l-0.1,1.4l0,0.2l-0.2,0.3l0.1,0.1l0.6-0.3L25.5,13.8z M25.3,15.3l-0.1-0.2L25,14.9l0,0.3l-0.1,0.3l0.2,0.2l0.4,0.1l0.2-0.5H25.3z
	 M25.1,17.5l0.1,0.3l0.3,0.1l0-0.3l-0.2-0.1L25.1,17.5z M25.4,18.5l-0.2,1.1l0,0.3l0.2-0.1l0.2-1l0.1-0.2L25.4,18.5z M25.6,20.5
	L25.4,20l-0.2,0.3l0.3,0.5l0.2,0.2L25.6,20.5z M27,18.6h0.4l-0.1-0.2H27L27,18.6z M27.2,17.1l0.4-0.3l0.1-0.2l-0.3,0L27,16.3v0.3
	L26.8,17l-0.2,0.2L27.2,17.1z M27.4,13.8l-0.1-0.1l-0.1,0.1l-0.3-0.1l-0.2,0.2l0.4,0.3L27.4,13.8z M27.1,15.4l0.5-0.3l-0.2-0.3
	l-0.2,0.4L27.1,15.4z M26.9,12.7h0.7L27.5,12l-0.4-0.3L27,11.8l-0.2,0.3l0.3,0.1L26.9,12.7z M27.3,13l-0.2,0.2l0,0.2l0.5-0.1l0-0.3
	H27.3z M26.6,9.5v0.2l0.2-0.1L26.6,9.5z M27.1,9.3l0,0.3l0.2-0.1V8.9l-0.1-0.1L27.1,9.3z M27.4,6.4L27.4,6.4l-0.1,0.3l0.2-0.1
	L27.4,6.4z M27.5,7.6h-0.1v0.2h0.1V7.6z M27.3,9.6L27,10l-0.2,0.7l0,0.3l-0.3,0l0.3,0l0.5,0.4l0.3-0.5l-0.5-0.6l0.1-0.2l0.2-0.1h0.3
	L27.3,9.6z M27.9,19l-0.2-0.1l-0.6,0.5l0,0.3h0.3l0.3-0.4l0.3,0L27.9,19z M29.1,16.5l0.2-0.1l-0.1-0.3l0.3,0.2L29.4,16l-0.2-0.2
	l-0.1,0.4V16.5z M29.2,13.5l0,0.2l0.2,0l0.2-0.4L29.2,13.5z M29.6,12l0-0.1h-0.3v0.2l0.1,0L29.6,12z M29.1,12.9l-0.3-0.2l-0.1,0.2
	l0,0.3L29.1,12.9z M29,4.5l0.1,0.2l0.2-0.2H29z M29.1,3.8L29.3,4l0.2-0.2H29.1z M29.4,5.3l-0.1,0.3L29,6l-0.1,0.3L29,6.4l0.5-0.3
	l0.1-0.5L29.4,5.3z M29.6,6.7l-0.2-0.1l-0.2,0.1l-0.2,0.4l-0.1,1.1l-0.3,0.4l0.2,0.2l0.3,0.1l0.2-0.2l0.2-0.5l-0.1-0.8l0.2,0.1
	l0.1-0.7L29.6,6.7z M29.5,9.1l-0.2,0.1v0.6l-0.4,1.1l0,0.8l0.5,0l0.1-0.2l-0.2-0.2l-0.2-0.5l0.3-0.4l0.2-1.2H29.5z M29.7,18.8
	L29.5,19h-0.3l0.2,0.2h0.3l0.2-0.1L29.7,18.8z M32,25.5l-0.2-0.1l-0.1,0.2l0,0.3l0.3-0.1L32,25.5z M31.2,11.6l0.3-0.1l0-0.2l-0.1,0
	l-0.2,0L31.2,11.6z M31.1,11.9v0.2h0.2v-0.2H31.1z M31.4,12.7l-0.3,0l0.1,0.5l0.4,0.3l0.2-0.1l0.2-0.5l-0.2-0.4L31.4,12.7z
	 M31.3,27.3l0.2-0.1l0-0.3l-0.2-0.1L31.2,27L31.3,27.3z M31.2,28.6l0.2,0l0.2-0.1l-0.2-0.2l-0.2,0.1L31.2,28.6z M31.5,25.1l0.2-0.1
	l0.1-0.2l-0.2,0l-0.2,0.1L31.5,25.1z M31.4,22.1l0.1-0.2l-0.3-0.1l-0.1,0.3H31.4z M31.3,23l0.1,0.3l0.4-0.4l-0.1-0.3L31.3,23z
	 M31.2,20l0.1,0.2l0.1-0.2l-0.1-0.3l-0.2,0.1L31.2,20z M31.3,19.6l0.3,0.1l0.2-0.4l-0.3,0l-0.2-0.1V19.6z M31.6,18l0.2,0.1l0-0.3
	l-0.3,0L31.6,18z M31.6,15.9v0.3l0.2,0.1L31.6,15.9z M31.7,30.5l-0.1,0.1l0.2-0.1H31.7z M31.6,31.7l0.2,0v-0.2l-0.4-0.2L31.6,31.7z
	 M31.3,29.8l0.3,0l-0.1-0.2h-0.3L31.3,29.8z M31.5,24.3l0.1-0.6l-0.1-0.2l-0.2-0.1l-0.1,0.3V24l-0.1,0.2L31.5,24.3z M31.2,17.1h0.4
	l-0.2-0.5l-0.3,0.1L31,16.9L31.2,17.1z M31.1,16.4l0.1-0.1l0-0.3L31,16l-0.1,0.1l0,0.2H31.1z M30.7,7.4v0.3l0.2-0.1L30.7,7.4z
	 M31.6,1.4h-0.2v0.2h0.2V1.4z M31.7,2.4l-0.2-0.1l-0.2,0.2v0.4l0.2,0.2l0.3,0l0-0.5L31.7,2.4z M31.9,4.5l0-0.3l-0.2-0.1l-0.2,0
	l-0.1,0.2l0.1,0.1l0,0.3L31,5l0.2,0.5l-0.1,0.6L31.6,6l0,0.3l-0.4,0.7l0.3,0.4l0.2,0.1L32,6.3l-0.1-1.1l0.2,0L32.1,5l-0.6-0.3
	L31.9,4.5z M31.2,7.9l0.5,0.3l0.2,0l-0.1-0.3l-0.2-0.1l-0.3,0L31.2,7.9z M32.1,10.9l-0.4-0.3l-0.1-0.2l0-0.3l-0.1-0.3l0.1-0.2
	L32,8.5l-0.2,0.1l-0.3,0.5L31.3,9l0.2-0.4l0-0.3l-0.4-0.1l-0.3,0.6v0.3l-0.3,0l-0.1,0.1l0.2,0l0.5-0.2l0.1,0.3l-0.1,1.3l0.1,0.2
	l0.2-0.1l0.6,0.3L32.1,10.9z M32,10.2V10h-0.2v0.2H32z M33.6,14.1L33.4,14l0.1,0.3L33.6,14.1l0.4-0.1l-0.2-0.2l0,0.2L33.6,14.1z
	 M33.8,13.7v-0.4l-0.2,0.1v0.2L33.8,13.7z M32.8,16L33,16l0.2-0.1l-0.1-0.2l-0.2,0.1L32.8,16z M32.9,12.5l-0.1-0.1l0,0.4l0.1,0.2
	L32.9,12.5z M33.2,16.5l0.3,0.4l0.1,0.3l0.3-0.1l0.2-0.2l0-0.3l-0.1-0.2l-0.1,0.2l-0.4-0.2L33.2,16.5z M33.3,15.4l0.3,0l0.1-0.2V15
	l-0.2-0.1h-0.3l-0.2-0.1L33.3,15.4z M33.9,17.2l-0.1,0.3l0.3,0.4L33.9,17.2z M34,18.5L33.9,18l-0.3,0.1l-0.3,0l-0.2,0l0.1,0.6
	l0.2,0.2l0.2-0.1L34,18.5z M33.4,21.5v0.3l0.4-0.2l0.1-0.2l0-0.5l-0.4-0.1l0,0.4l0.2,0.2L33.4,21.5z M33.4,20.2h0.3l0.2-0.1
	l-0.5-0.6l0,0.5L33.4,20.2z M33.6,22l-0.3,0.4l-0.3,0l0.1,0.5l0.2,0.2l0.1-0.3l0.1,0.1l0.1-0.2l0.2,0.1l0.1-0.6L33.6,22z M33.7,23.7
	l-0.1-0.2l-0.2,0.1l0.1,0.1H33.7z M33.5,25.8V26h0.3l0.1-0.2H33.5z M33.5,33.1l0.2,0.1v-0.6l-0.3-0.1l0,0.3L33.5,33.1z M33.5,31.3
	l0.3,0.1v-0.3l-0.3-0.3l-0.1,0.2L33.5,31.3z M33.4,30.3l0.2,0.2l0.2,0.1l0-0.4l0.1-0.4h-0.4l-0.2-0.4l-0.2-0.1L33.4,30.3z M33.4,27
	l0.2,0l0.3-0.5v-0.3l-0.4,0l-0.2,0.2l0,0.3L33.4,27l-0.3,0.1l0,0.2L33.4,27z M33,24.5l0-0.3L32.8,24l-0.1,0.3L33,24.5z M34.1,5.5
	l-0.2-0.7l0.2-0.3L34,3.6l0.1-0.3h-0.2l-0.1-1l-0.2,0.7l0,0.2l0.3,0.2l0,0.4l-0.2,0.6l0,0.2l-0.6,0.1L33,4.9l0.5,0l0,0.4l-0.2,0
	l-0.1,0.2h0.3l0.1,0.3l-0.5,0.1l0.1,0.7l-0.2,0.1l-0.2,0.4v0.5l0.3,0.7l0.1-0.2l0,0.3L33,8.6l0.4,0.3l0,0.2l-0.3,0l-0.2,0.1l0.3,0.2
	l0,0.2L33,9.6l-0.1-0.1h-0.3l0.1,0.5l0.5,0.3l0.1,0.2l0,0.2l-0.4-0.1l0,0.5l0.1,0.5l-0.3,0.5l0,0.3l0.1,0.2v-0.3l0.1-0.2l0.4,0.2
	l0.2,0.2l-0.2,0.3l-0.1-0.1l0.1,0.3l0.2,0.1l0.3,0l0.2-0.2l0.1-0.3l-0.1-0.3l-0.4,0.1v-0.3l0.1-0.1h0.3l0.2,0.1l0-0.3l-0.4-0.1
	l0-0.3l-0.4-0.3l-0.1-0.3l0.6-0.1l0.2-0.2l0-0.8l-0.2-0.2l0.2-0.2L34,9.1l-0.4-0.6L33.9,8l-0.2-0.3h-0.5V7.3l0.1-0.2h0.4L33.9,7
	l0.2,0.4l0.3-0.2L34,6.9l0-0.2L34.1,5.5z M35.6,14.6l0.2,0.1l0.2,0l-0.1-0.3l-0.3-0.1L35.6,14.6z M35.5,15.2v0.2h0.2v-0.2H35.5z
	 M35.8,18.2l0,0.2l0.1,0.1l0.1-0.2l0,0.2v-0.3H35.8z M35.8,19.8l-0.1,0.1L35.5,20l0.4,0.1L36,20L35.8,19.8z M35.5,25.7l-0.1,0.2v0.2
	l0.3,0l0-0.3L35.5,25.7z M35.6,25.4v-0.1h-0.1v0.1H35.6z M35.9,21l-0.1-0.3l-0.2,0l-0.1,0.3L35.9,21z M35.5,22.5l0,0.3l0.3,0.1
	L35.5,22.5z M35.8,23.8l-0.2-0.1l0.1,0.3h0.3L35.8,23.8z M35.7,29.4L35.7,29.4l-0.1-0.3L35.7,29.4z M35.5,30.6l-0.1-0.3l-0.2,0.1
	L35.5,30.6z M35.3,19.1l0.1-0.4l-0.2,0l-0.1,0.1L35.3,19.1z M35.1,17.8l0.2,0.1l0.1-0.6l0.4-0.6l-0.3,0l-0.3,0.1l-0.2,0.1L35.1,17.8
	z M35.3,15l-0.1-0.2L35.1,15H35.3z M35.1,13.5l0.5,0.2l0.6-0.5l-0.3,0l-0.5-0.6l-0.1,0.3L35.1,13l-0.2,0L35.1,13.5z M35.3,12
	l-0.2,0.1l0,0.1L35.3,12z M34.8,12.5l0.2-0.1l-0.1-0.2l-0.1,0.1V12.5z M35.4,4.1L35.1,4l0,0.4l0.2,0.1L35.4,4.1z M35.4,4.9l-0.2-0.1
	l-0.1,0.4l0,0.3h0.5L35.4,4.9z M36,5.6l-0.1-0.2l-0.3,0.5l-0.2,0.2l0-0.2l-0.1-0.1h-0.2l-0.2,0.4l0.1,0.3l0.2,0.1l0.1,0.3l-0.3,0.3
	l0.9,0.1l0.3-1.1L36,5.6z M36,12.1l0.1-0.9l-0.5-0.4l0.4-0.5l-0.4-0.9l0.2-0.2l0.2-0.5L36,8.2l-0.1-0.5l-0.2-0.2l-0.4,0l-0.4-0.1
	l0,0.4L34.7,8L35,8.2l0.1,0.3l-0.3,0.2l0.4,0.6l-0.1,0.5l0.4,0.3l0,0.4L35.1,11v0.4h0.2l0.2,0.1l0.1,0.2l0,0.3L36,12.1l-0.1,0.2h0.3
	l0.1-0.2L36,12.1z M37.4,10v0.1l0.2,0.1L37.4,10z M37.3,11.4l0-0.2l0.4-0.2l0.2-0.3l-0.5,0.2L37,11.3L37,11.8l0.1,0.3L37.3,11.4z
	 M37.7,15.8l0.3,0v-0.5h-0.3l-0.1,0.2L37.7,15.8z M37.4,31v0.2l0.3-0.1L37.4,31z M35.5,8.6l0.1,0.3l-0.1-0.1V8.6z M35.2,8.2h0.3v0.3
	h-0.2L35.2,8.2z M4.1,5.3l0-0.3l0.1,0.1l0,0.3L4.1,5.3z M20.9,16.4h0.2v0.2h-0.2V16.4z"/>
</svg>
